0 FILE Gantry-Robot_Third-Party.io
0 Untitled Model
0 Name: Gantry-Robot_Third-Party
0 Author: 
0 CustomBrick
0 FlexibleBrickControlPointUnitLength -1
0 FlexibleBrickLockedControlPoint 
0 NumOfBricks 736
1 71 720.000000 -4.000000 -280.000000 0.000000 0.000000 1.000000 0.000000 1.000000 0.000000 -1.000000 0.000000 0.000000 4186.dat
1 71 719.996600 -4.000190 680.008600 0.000000 0.000000 1.000000 0.000000 1.000000 0.000000 -1.000000 0.000000 0.000000 4186.dat
1 71 720.000000 -4.000000 1640.000000 0.000000 0.000000 1.000000 0.000000 1.000000 0.000000 -1.000000 0.000000 0.000000 4186.dat
1 4 1160.000000 -28.000000 -750.000000 1.000000 0.000000 0.000000 0.000000 1.000000 0.000000 0.000000 0.000000 1.000000 3004.dat
1 4 1180.000000 -52.000000 -750.000000 1.000000 0.000000 0.000000 0.000000 1.000000 0.000000 0.000000 0.000000 1.000000 3004.dat
1 14 1190.000000 -28.000000 -740.000100 0.000000 0.000000 -1.000000 0.000000 1.000000 0.000000 1.000000 0.000000 0.000000 3004.dat
0 STUDIOSTEPDESC Base and Orientation Brick
0 STEP
1 71 1049.976000 -551.999600 1180.004000 0.000000 0.000000 -1.000000 0.000000 1.000000 0.000000 1.000000 0.000000 0.000000 3743.dat
1 71 1049.980000 -551.999600 860.002800 0.000000 0.000000 -1.000000 0.000000 1.000000 0.000000 1.000000 0.000000 0.000000 3743.dat
1 71 1049.980000 -551.999600 940.003200 0.000000 0.000000 -1.000000 0.000000 1.000000 0.000000 1.000000 0.000000 0.000000 3743.dat
1 71 1049.979000 -551.999600 1419.998000 0.000000 0.000000 -1.000000 0.000000 1.000000 0.000000 1.000000 0.000000 0.000000 3743.dat
1 71 1049.979000 -551.999600 1259.999000 0.000000 0.000000 -1.000000 0.000000 1.000000 0.000000 1.000000 0.000000 0.000000 3743.dat
1 71 1049.979000 -551.999600 1339.995000 0.000000 0.000000 -1.000000 0.000000 1.000000 0.000000 1.000000 0.000000 0.000000 3743.dat
1 0 1079.979000 -557.999600 620.000900 1.000000 0.000000 0.000000 0.000000 1.000000 0.000000 0.000000 0.000000 1.000000 2780.dat
1 0 1079.979000 -477.999700 740.000900 1.000000 0.000000 0.000000 0.000000 1.000000 0.000000 0.000000 0.000000 1.000000 2780.dat
1 0 1079.979000 -557.999600 740.000900 1.000000 0.000000 0.000000 0.000000 1.000000 0.000000 0.000000 0.000000 1.000000 2780.dat
1 0 1079.979000 -557.999600 840.001700 1.000000 0.000000 0.000000 0.000000 1.000000 0.000000 0.000000 0.000000 1.000000 2780.dat
1 0 1079.979000 -477.999700 880.001700 1.000000 0.000000 0.000000 0.000000 1.000000 0.000000 0.000000 0.000000 1.000000 2780.dat
1 0 1079.979000 -557.999600 880.001700 1.000000 0.000000 0.000000 0.000000 1.000000 0.000000 0.000000 0.000000 1.000000 2780.dat
1 0 1079.979000 -477.999700 840.001700 1.000000 0.000000 0.000000 0.000000 1.000000 0.000000 0.000000 0.000000 1.000000 2780.dat
1 0 1079.979000 -557.999600 920.002300 1.000000 0.000000 0.000000 0.000000 1.000000 0.000000 0.000000 0.000000 1.000000 2780.dat
1 0 1079.979000 -477.999700 960.002600 1.000000 0.000000 0.000000 0.000000 1.000000 0.000000 0.000000 0.000000 1.000000 2780.dat
1 0 1079.979000 -557.999600 960.002400 1.000000 0.000000 0.000000 0.000000 1.000000 0.000000 0.000000 0.000000 1.000000 2780.dat
1 0 1079.979000 -477.999700 920.002400 1.000000 0.000000 0.000000 0.000000 1.000000 0.000000 0.000000 0.000000 1.000000 2780.dat
1 71 1049.979000 -551.999600 1660.001000 0.000000 0.000000 -1.000000 0.000000 1.000000 0.000000 1.000000 0.000000 0.000000 3743.dat
1 71 1049.979000 -551.999600 1500.001000 0.000000 0.000000 -1.000000 0.000000 1.000000 0.000000 1.000000 0.000000 0.000000 3743.dat
1 71 1049.979000 -551.999600 1580.000000 0.000000 0.000000 -1.000000 0.000000 1.000000 0.000000 1.000000 0.000000 0.000000 3743.dat
1 0 1079.979000 -557.999700 1160.001000 1.000000 0.000000 0.000000 0.000000 1.000000 0.000000 0.000000 0.000000 1.000000 2780.dat
1 0 1079.979000 -477.999700 1200.001000 1.000000 0.000000 0.000000 0.000000 1.000000 0.000000 0.000000 0.000000 1.000000 2780.dat
1 0 1079.979000 -557.999700 1200.001000 1.000000 0.000000 0.000000 0.000000 1.000000 0.000000 0.000000 0.000000 1.000000 2780.dat
1 0 1079.979000 -477.999700 1160.001000 1.000000 0.000000 0.000000 0.000000 1.000000 0.000000 0.000000 0.000000 1.000000 2780.dat
1 71 1069.979000 -477.999700 1320.001000 0.000000 1.000000 0.000000 -1.000000 0.000000 0.000000 0.000000 0.000000 1.000000 32525.dat
1 71 1069.979000 -567.999600 1340.001000 0.000000 0.000000 -1.000000 0.000000 1.000000 0.000000 1.000000 0.000000 0.000000 3895.dat
1 0 1079.979000 -557.999600 1240.001000 1.000000 0.000000 0.000000 0.000000 1.000000 0.000000 0.000000 0.000000 1.000000 2780.dat
1 0 1079.979000 -477.999700 1280.001000 1.000000 0.000000 0.000000 0.000000 1.000000 0.000000 0.000000 0.000000 1.000000 2780.dat
1 0 1079.979000 -557.999600 1280.001000 1.000000 0.000000 0.000000 0.000000 1.000000 0.000000 0.000000 0.000000 1.000000 2780.dat
1 0 1079.979000 -477.999700 1240.001000 1.000000 0.000000 0.000000 0.000000 1.000000 0.000000 0.000000 0.000000 1.000000 2780.dat
1 0 1079.979000 -557.999600 1380.002000 1.000000 0.000000 0.000000 0.000000 1.000000 0.000000 0.000000 0.000000 1.000000 2780.dat
1 0 1079.979000 -477.999700 1420.002000 1.000000 0.000000 0.000000 0.000000 1.000000 0.000000 0.000000 0.000000 1.000000 2780.dat
1 0 1079.979000 -557.999600 1420.002000 1.000000 0.000000 0.000000 0.000000 1.000000 0.000000 0.000000 0.000000 1.000000 2780.dat
1 0 1079.979000 -477.999700 1380.002000 1.000000 0.000000 0.000000 0.000000 1.000000 0.000000 0.000000 0.000000 1.000000 2780.dat
1 71 1069.979000 -477.999700 1560.000000 0.000000 1.000000 0.000000 -1.000000 0.000000 0.000000 0.000000 0.000000 1.000000 32525.dat
1 71 1069.979000 -567.999600 1560.000000 0.000000 0.000000 1.000000 0.000000 1.000000 0.000000 -1.000000 0.000000 0.000000 2730.dat
1 71 1049.978000 -551.999600 2060.001000 0.000000 0.000000 -1.000000 0.000000 1.000000 0.000000 1.000000 0.000000 0.000000 3743.dat
1 71 1049.979000 -551.999600 1980.000000 0.000000 0.000000 -1.000000 0.000000 1.000000 0.000000 1.000000 0.000000 0.000000 3743.dat
1 71 1049.979000 -551.999600 1900.000000 0.000000 0.000000 -1.000000 0.000000 1.000000 0.000000 1.000000 0.000000 0.000000 3743.dat
1 0 1079.979000 -477.999700 1460.000000 1.000000 0.000000 0.000000 0.000000 1.000000 0.000000 0.000000 0.000000 1.000000 2780.dat
1 0 1079.979000 -477.999700 1500.000000 1.000000 0.000000 0.000000 0.000000 1.000000 0.000000 0.000000 0.000000 1.000000 2780.dat
1 0 1079.979000 -557.999600 1500.000000 1.000000 0.000000 0.000000 0.000000 1.000000 0.000000 0.000000 0.000000 1.000000 2780.dat
1 0 1079.979000 -557.999600 1640.000000 1.000000 0.000000 0.000000 0.000000 1.000000 0.000000 0.000000 0.000000 1.000000 2780.dat
1 0 1079.979000 -477.999700 1640.000000 1.000000 0.000000 0.000000 0.000000 1.000000 0.000000 0.000000 0.000000 1.000000 2780.dat
1 0 1079.979000 -557.999600 1600.000000 1.000000 0.000000 0.000000 0.000000 1.000000 0.000000 0.000000 0.000000 1.000000 2780.dat
1 0 1079.979000 -477.999700 1600.000000 1.000000 0.000000 0.000000 0.000000 1.000000 0.000000 0.000000 0.000000 1.000000 2780.dat
1 0 1079.980000 -557.999600 1680.001000 1.000000 0.000000 0.000000 0.000000 1.000000 0.000000 0.000000 0.000000 1.000000 2780.dat
1 0 1079.980000 -477.999700 1720.001000 1.000000 0.000000 0.000000 0.000000 1.000000 0.000000 0.000000 0.000000 1.000000 2780.dat
1 0 1079.980000 -477.999700 1680.001000 1.000000 0.000000 0.000000 0.000000 1.000000 0.000000 0.000000 0.000000 1.000000 2780.dat
1 0 1079.980000 -557.999600 1720.001000 1.000000 0.000000 0.000000 0.000000 1.000000 0.000000 0.000000 0.000000 1.000000 2780.dat
1 71 1049.979000 -551.999600 2220.000000 0.000000 0.000000 -1.000000 0.000000 1.000000 0.000000 1.000000 0.000000 0.000000 3743.dat
1 71 1049.979000 -551.999600 2140.000000 0.000000 0.000000 -1.000000 0.000000 1.000000 0.000000 1.000000 0.000000 0.000000 3743.dat
1 0 1079.979000 -557.999600 1960.000000 1.000000 0.000000 0.000000 0.000000 1.000000 0.000000 0.000000 0.000000 1.000000 2780.dat
1 0 1079.979000 -557.999600 1920.000000 1.000000 0.000000 0.000000 0.000000 1.000000 0.000000 0.000000 0.000000 1.000000 2780.dat
1 0 1079.979000 -477.999700 1960.000000 1.000000 0.000000 0.000000 0.000000 1.000000 0.000000 0.000000 0.000000 1.000000 2780.dat
1 0 1079.979000 -477.999700 1920.000000 1.000000 0.000000 0.000000 0.000000 1.000000 0.000000 0.000000 0.000000 1.000000 2780.dat
1 71 1069.978000 -477.999700 2120.001000 0.000000 1.000000 0.000000 -1.000000 0.000000 0.000000 0.000000 0.000000 1.000000 32278.dat
1 0 1079.978000 -477.999600 2000.001000 1.000000 0.000000 0.000000 0.000000 1.000000 0.000000 0.000000 0.000000 1.000000 2780.dat
1 0 1079.979000 -557.999600 2040.000000 1.000000 0.000000 0.000000 0.000000 1.000000 0.000000 0.000000 0.000000 1.000000 2780.dat
1 0 1079.978000 -477.999600 2040.001000 -1.000000 0.000000 0.000000 0.000000 1.000000 0.000000 0.000000 0.000000 -1.000000 2780.dat
1 0 1079.979000 -557.999600 2000.000000 1.000000 0.000000 0.000000 0.000000 1.000000 0.000000 0.000000 0.000000 1.000000 2780.dat
1 0 1079.978000 -557.999600 2160.002000 1.000000 0.000000 0.000000 0.000000 1.000000 0.000000 0.000000 0.000000 1.000000 2780.dat
1 0 1079.978000 -477.999700 2160.002000 1.000000 0.000000 0.000000 0.000000 1.000000 0.000000 0.000000 0.000000 1.000000 2780.dat
1 0 1079.978000 -477.999700 2240.002000 1.000000 0.000000 0.000000 0.000000 1.000000 0.000000 0.000000 0.000000 1.000000 2780.dat
1 0 1080.003000 -278.000300 260.004700 -0.999994 0.000000 0.000001 0.000001 0.000000 1.000002 0.000000 0.999992 0.000000 2780.dat
1 0 1080.003000 -238.000300 260.004400 -0.999994 0.000000 0.000001 0.000001 0.000000 1.000002 0.000000 0.999992 0.000000 2780.dat
1 0 1080.003000 -198.000200 260.004400 -0.999993 0.000000 0.000001 0.000001 0.000000 1.000001 0.000000 0.999992 0.000000 2780.dat
1 0 1080.003000 -158.000100 260.004400 0.999993 0.000000 0.000000 0.000000 0.000000 1.000001 0.000000 -0.999992 0.000000 2780.dat
1 0 1079.988000 -437.999800 260.010000 -0.999983 -0.000001 0.000001 0.000001 0.000000 1.000001 0.000000 0.999983 0.000000 2780.dat
1 0 1080.003000 -138.000100 260.004400 -0.999992 0.000000 0.000000 0.000000 0.000000 1.000000 0.000000 0.999991 0.000000 2780.dat
1 0 1080.003000 -98.000190 260.004400 -0.999992 0.000000 0.000000 0.000000 0.000000 1.000000 0.000000 0.999991 0.000000 2780.dat
1 0 1079.993000 -418.000200 260.004700 -1.000000 0.000000 0.000001 0.000001 0.000000 1.000008 0.000000 0.999992 0.000000 2780.dat
1 0 1079.993000 -378.000200 260.004700 -1.000000 0.000000 0.000001 0.000001 0.000000 1.000008 0.000000 0.999992 0.000000 2780.dat
1 0 1079.993000 -337.999500 260.004700 -0.999999 0.000000 0.000001 0.000001 0.000000 1.000007 0.000000 0.999992 0.000000 2780.dat
1 0 1079.993000 -298.000100 260.004700 -0.999996 -0.000001 0.000001 0.000001 0.000000 1.000004 0.000000 0.999992 0.000000 2780.dat
1 71 1070.004000 -138.000100 260.003900 0.000000 -0.999992 0.000000 0.000000 0.000000 -1.000000 0.999992 0.000000 0.000000 32524.dat
1 71 1069.992000 -337.999900 260.005600 0.000000 -0.999992 0.000000 0.000000 0.000000 1.000000 -0.999992 0.000000 0.000000 41239.dat
1 0 1079.978000 -557.999600 2240.001000 0.999992 0.000000 0.000000 0.000000 1.000000 0.000000 0.000000 0.000000 0.999992 2780.dat
1 71 1059.979000 -543.999600 2140.002000 0.000000 0.000000 -0.999992 0.000000 1.000000 0.000000 0.999992 0.000000 0.000000 3832.dat
1 71 1069.979000 -477.999700 800.002300 0.000000 -0.999992 0.000000 1.000000 0.000000 0.000000 0.000000 0.000000 0.999992 32525.dat
1 0 1079.979000 -477.999700 700.002400 0.999992 0.000000 0.000000 0.000000 1.000000 0.000000 0.000000 0.000000 0.999992 2780.dat
1 0 1079.979000 -477.999700 660.002300 0.999992 0.000000 0.000000 0.000000 1.000000 0.000000 0.000000 0.000000 0.999992 2780.dat
1 0 1079.979000 -477.999700 620.002400 0.999992 0.000000 0.000000 0.000000 1.000000 0.000000 0.000000 0.000000 0.999992 2780.dat
1 71 1069.980000 -477.999700 560.002900 0.000000 -0.999992 0.000000 1.000000 0.000000 0.000000 0.000000 0.000000 0.999992 32525.dat
1 0 1079.990000 -478.000200 260.006900 -0.999992 -0.000001 0.000001 0.000001 0.000000 1.000000 -0.000001 0.999992 0.000000 2780.dat
1 0 1079.979000 -477.999700 520.003100 -0.999992 -0.000001 0.000001 0.000001 0.000000 1.000000 -0.000001 0.999992 0.000000 2780.dat
1 0 1079.979000 -477.999700 480.003500 -0.999992 -0.000001 0.000001 0.000001 0.000000 1.000000 -0.000001 0.999992 0.000000 2780.dat
1 0 1079.989000 -478.000200 440.005400 -0.999992 -0.000001 0.000001 0.000001 0.000000 1.000000 -0.000001 0.999992 0.000000 2780.dat
1 0 1079.989000 -478.000200 400.005700 -0.999992 -0.000001 0.000001 0.000001 0.000000 1.000000 -0.000001 0.999992 0.000000 2780.dat
1 0 1079.991000 -558.010300 -139.989800 1.000021 0.000000 0.000000 0.000000 1.000029 0.000000 0.000000 0.000000 0.999992 2780.dat
1 0 1079.991000 -478.005100 -19.991060 1.000021 0.000000 0.000000 0.000000 1.000029 0.000000 0.000000 0.000000 0.999992 2780.dat
1 0 1079.991000 -558.010300 -19.991060 1.000021 0.000000 0.000000 0.000000 1.000029 0.000000 0.000000 0.000000 0.999992 2780.dat
1 0 1079.991000 -558.010300 80.008270 1.000021 0.000000 0.000000 0.000000 1.000029 0.000000 0.000000 0.000000 0.999992 2780.dat
1 0 1079.991000 -478.005100 120.007500 1.000021 0.000000 0.000000 0.000000 1.000029 0.000000 0.000000 0.000000 0.999992 2780.dat
1 0 1079.991000 -558.010300 120.007500 1.000021 0.000000 0.000000 0.000000 1.000029 0.000000 0.000000 0.000000 0.999992 2780.dat
1 0 1079.991000 -478.005100 80.008270 1.000021 0.000000 0.000000 0.000000 1.000029 0.000000 0.000000 0.000000 0.999992 2780.dat
1 0 1079.990000 -558.010300 160.007100 1.000021 0.000000 0.000000 0.000000 1.000029 0.000000 0.000000 0.000000 0.999992 2780.dat
1 0 1079.991000 -478.005100 200.005800 1.000021 0.000000 0.000000 0.000000 1.000029 0.000000 0.000000 0.000000 0.999992 2780.dat
1 0 1079.990000 -558.010300 200.005800 1.000021 0.000000 0.000000 0.000000 1.000029 0.000000 0.000000 0.000000 0.999992 2780.dat
1 0 1079.990000 -478.005100 160.007300 1.000021 0.000000 0.000000 0.000000 1.000029 0.000000 0.000000 0.000000 0.999992 2780.dat
1 71 1069.990000 -478.005200 40.009680 0.000000 -1.000013 0.000000 1.000029 0.000000 0.000000 0.000000 0.000000 0.999984 32525.dat
1 0 1079.991000 -478.005100 -59.989320 1.000013 0.000000 0.000000 0.000000 1.000029 0.000000 0.000000 0.000000 0.999984 2780.dat
1 0 1079.991000 -478.005100 -99.988840 1.000013 0.000000 0.000000 0.000000 1.000029 0.000000 0.000000 0.000000 0.999984 2780.dat
1 0 1079.991000 -478.005100 -139.988400 1.000013 0.000000 0.000000 0.000000 1.000029 0.000000 0.000000 0.000000 0.999984 2780.dat
1 71 1069.990000 -478.005200 -199.987900 0.000000 -1.000013 0.000000 1.000029 0.000000 0.000000 0.000000 0.000000 0.999984 32525.dat
1 0 1079.991000 -478.005200 -239.988900 -1.000013 -0.000001 0.000001 0.000001 0.000000 1.000029 -0.000001 0.999984 0.000000 2780.dat
1 0 1079.991000 -478.005200 -279.988300 -1.000013 -0.000001 0.000001 0.000001 0.000000 1.000029 -0.000001 0.999984 0.000000 2780.dat
1 0 1080.001000 -478.005600 -319.986000 -1.000013 -0.000001 0.000001 0.000001 0.000000 1.000029 -0.000001 0.999984 0.000000 2780.dat
1 0 1080.001000 -478.005600 -359.985300 -1.000013 -0.000001 0.000001 0.000001 0.000000 1.000029 -0.000001 0.999984 0.000000 2780.dat
1 0 1079.999000 -557.987900 -919.976900 1.000006 0.000000 0.000000 0.000000 1.000015 0.000000 0.000000 0.000000 0.999992 2780.dat
1 0 1079.999000 -477.992100 -799.977800 1.000006 0.000000 0.000000 0.000000 1.000015 0.000000 0.000000 0.000000 0.999992 2780.dat
1 0 1079.999000 -557.987900 -799.977800 1.000006 0.000000 0.000000 0.000000 1.000015 0.000000 0.000000 0.000000 0.999992 2780.dat
1 0 1079.999000 -557.987900 -679.981400 1.000007 0.000000 0.000000 0.000000 1.000015 0.000000 0.000000 0.000000 0.999992 2780.dat
1 0 1079.999000 -477.992100 -639.982400 1.000007 0.000000 0.000000 0.000000 1.000015 0.000000 0.000000 0.000000 0.999992 2780.dat
1 0 1079.999000 -557.987900 -639.982400 1.000007 0.000000 0.000000 0.000000 1.000015 0.000000 0.000000 0.000000 0.999992 2780.dat
1 0 1079.999000 -477.992100 -679.981400 1.000007 0.000000 0.000000 0.000000 1.000015 0.000000 0.000000 0.000000 0.999992 2780.dat
1 0 1079.999000 -557.987900 -599.982200 1.000007 0.000000 0.000000 0.000000 1.000015 0.000000 0.000000 0.000000 0.999992 2780.dat
1 0 1079.999000 -477.992100 -559.982100 1.000007 0.000000 0.000000 0.000000 1.000015 0.000000 0.000000 0.000000 0.999992 2780.dat
1 0 1079.999000 -557.987900 -559.982100 1.000007 0.000000 0.000000 0.000000 1.000015 0.000000 0.000000 0.000000 0.999992 2780.dat
1 0 1079.999000 -477.992100 -599.981900 1.000007 0.000000 0.000000 0.000000 1.000015 0.000000 0.000000 0.000000 0.999992 2780.dat
1 0 1079.999000 -477.992100 -879.975900 0.999999 0.000000 0.000000 0.000000 1.000015 0.000000 0.000000 0.000000 0.999984 2780.dat
1 71 1069.999000 -477.992100 -759.976800 0.000000 -0.999992 0.000000 -1.000000 0.000000 0.000000 0.000000 0.000000 -0.999992 32278.dat
1 0 1079.991000 -558.011500 -359.986900 0.999992 0.000000 0.000000 0.000000 1.000000 0.000000 0.000000 0.000000 0.999992 2780.dat
1 0 1079.991000 -558.011400 -319.987500 0.999992 0.000000 0.000000 0.000000 1.000000 0.000000 0.000000 0.000000 0.999992 2780.dat
1 0 1079.991000 -558.011500 -279.988300 0.999992 0.000000 0.000000 0.000000 1.000000 0.000000 0.000000 0.000000 0.999992 2780.dat
1 0 1079.991000 -558.011500 -239.989400 0.999992 0.000000 0.000000 0.000000 1.000000 0.000000 0.000000 0.000000 0.999992 2780.dat
1 0 1079.991000 -558.011400 -99.988840 0.999992 0.000000 0.000000 0.000000 1.000000 0.000000 0.000000 0.000000 0.999992 2780.dat
1 0 1079.990000 -558.000300 260.006900 0.999992 0.000000 0.000000 0.000000 1.000000 0.000000 0.000000 0.000000 0.999992 2780.dat
1 0 1079.979000 -557.999800 400.004100 0.999992 0.000000 0.000000 0.000000 1.000000 0.000000 0.000000 0.000000 0.999992 2780.dat
1 0 1079.979000 -557.999800 440.003800 0.999992 0.000000 0.000000 0.000000 1.000000 0.000000 0.000000 0.000000 0.999992 2780.dat
1 0 1079.979000 -557.999800 480.003500 0.999992 0.000000 0.000000 0.000000 1.000000 0.000000 0.000000 0.000000 0.999992 2780.dat
1 0 1079.979000 -557.999800 520.003100 0.999992 0.000000 0.000000 0.000000 1.000000 0.000000 0.000000 0.000000 0.999992 2780.dat
1 71 1069.978000 -567.999600 2140.002000 0.000000 0.000000 0.999992 0.000000 1.000000 0.000000 -0.999992 0.000000 0.000000 3703.dat
1 71 1069.999000 -567.987900 -779.981200 0.000000 0.000000 0.999992 0.000000 1.000000 0.000000 -0.999992 0.000000 0.000000 3703.dat
1 71 1069.991000 -568.011500 -179.989900 0.000000 0.000000 -0.999992 0.000000 1.000000 0.000000 0.999992 0.000000 0.000000 3895.dat
1 71 1069.990000 -568.010300 40.008460 0.000000 0.000000 -0.999992 0.000000 1.000000 0.000000 0.999992 0.000000 0.000000 2730.dat
1 71 1069.979000 -567.999600 800.000500 0.000000 0.000000 -0.999992 0.000000 1.000000 0.000000 0.999992 0.000000 0.000000 2730.dat
1 71 1069.980000 -567.999800 580.002600 0.000000 0.000000 -0.999992 0.000000 1.000000 0.000000 0.999992 0.000000 0.000000 3895.dat
1 0 1079.979000 -557.999800 660.002000 0.999992 0.000000 0.000000 0.000000 1.000000 0.000000 0.000000 0.000000 0.999992 2780.dat
1 71 1059.979000 -543.999600 1580.003000 0.000000 0.000000 -0.999992 0.000000 1.000000 0.000000 0.999992 0.000000 0.000000 91988.dat
1 71 1059.979000 -543.999600 1299.995000 0.000000 0.000000 -0.999992 0.000000 1.000000 0.000000 0.999992 0.000000 0.000000 91988.dat
1 71 1059.979000 -543.999600 820.000500 0.000000 0.000000 -0.999992 0.000000 1.000000 0.000000 0.999992 0.000000 0.000000 91988.dat
1 71 1059.978000 -543.999600 539.988800 -0.000001 0.000000 -0.999999 0.000000 1.000000 0.000000 0.999999 0.000000 -0.000001 91988.dat
1 71 1059.993000 -544.011500 60.017450 0.000000 0.000000 -0.999985 0.000000 1.000000 0.000000 0.999985 0.000000 0.000000 91988.dat
1 71 1059.991000 -544.011500 -219.991800 -0.000001 0.000000 -0.999992 0.000000 1.000000 0.000000 0.999992 0.000000 -0.000001 91988.dat
1 71 1059.999000 -543.987900 -779.981200 0.000000 0.000000 -0.999992 0.000000 1.000000 0.000000 0.999992 0.000000 0.000000 3832.dat
1 0 1079.999000 -557.988000 -879.980500 0.999992 0.000000 0.000000 0.000000 1.000000 0.000000 0.000000 0.000000 0.999992 2780.dat
1 71 1109.999000 -27.999850 -459.985000 0.000000 0.000000 -0.999992 0.000000 1.000000 0.000000 0.999992 0.000000 0.000000 3894.dat
1 1 1090.000000 -17.999850 -419.978700 -0.999992 0.000000 0.000000 0.000000 1.000000 0.000000 0.000000 0.000000 -0.999992 6558.dat
1 1 1089.999000 -17.999850 -499.985100 -0.999992 0.000000 0.000000 0.000000 1.000000 0.000000 0.000000 0.000000 -0.999992 6558.dat
1 71 1089.989000 -498.000100 -459.983600 0.000000 0.999992 0.000000 0.000000 0.000000 -1.000000 -0.999992 0.000000 0.000000 64179.dat
1 71 1090.000000 -77.999910 -459.983600 0.000000 0.999992 0.000000 0.000000 0.000000 -1.000000 -0.999992 0.000000 0.000000 64179.dat
1 0 1090.000000 -148.000100 -479.984800 0.000000 0.999992 0.000000 -1.000000 0.000000 0.000000 0.000000 0.000000 0.999992 2780.dat
1 0 1090.000000 -147.999900 -439.981100 0.000000 0.999992 0.000000 -1.000000 0.000000 0.000000 0.000000 0.000000 0.999992 2780.dat
1 71 1090.000000 -218.000000 -459.984100 0.000000 0.999992 0.000000 0.000000 0.000000 -1.000000 -0.999992 0.000000 0.000000 64179.dat
1 0 1089.999000 -288.000300 -479.985300 -0.000001 0.999994 0.000000 -1.000002 -0.000001 0.000000 0.000000 0.000000 0.999992 2780.dat
1 0 1089.999000 -288.000200 -439.981100 -0.000001 0.999994 0.000000 -1.000002 -0.000001 0.000000 0.000000 0.000000 0.999992 2780.dat
1 71 1070.000000 -27.999910 -459.983600 0.000000 0.000000 -0.999992 0.000000 1.000000 0.000000 0.999992 0.000000 0.000000 3894.dat
1 16 1081.761000 -68.999790 -459.983100 0.000000 0.000000 -0.999992 0.000000 1.000000 0.000000 0.999992 0.000000 0.000000 39 copy 3
1 0 1079.988000 -437.999700 -419.977200 -0.999993 -0.000001 0.000001 0.000001 0.000000 1.000001 0.000000 0.999992 0.000000 2780.dat
1 0 1079.988000 -437.999700 -499.984600 -0.999993 -0.000001 0.000001 0.000001 0.000000 1.000001 0.000000 0.999992 0.000000 2780.dat
1 0 1079.999000 -137.999900 -499.985100 -0.999992 0.000000 0.000000 0.000000 0.000000 1.000000 0.000000 0.999992 0.000000 2780.dat
1 0 1079.999000 -137.999900 -419.978700 -0.999992 0.000000 0.000000 0.000000 0.000000 1.000000 0.000000 0.999992 0.000000 2780.dat
1 0 1079.999000 -97.999910 -419.978700 0.999992 0.000000 0.000000 0.000000 0.000000 1.000000 0.000000 -0.999992 0.000000 2780.dat
1 0 1079.999000 -98.000030 -499.985100 -0.999992 0.000000 0.000000 0.000000 0.000000 1.000000 0.000000 0.999992 0.000000 2780.dat
1 71 1069.989000 -337.999700 -419.977200 0.000000 -0.999992 0.000000 0.000000 0.000000 1.000000 -0.999992 0.000000 0.000000 41239.dat
1 71 1069.988000 -337.999800 -499.984100 0.000000 -0.999992 0.000000 0.000000 0.000000 1.000000 -0.999992 0.000000 0.000000 41239.dat
1 0 1079.999000 -278.000100 -499.985100 -0.999994 0.000000 0.000001 0.000001 0.000000 1.000002 0.000000 0.999992 0.000000 2780.dat
1 0 1079.999000 -278.000100 -419.978700 -0.999994 0.000000 0.000001 0.000001 0.000000 1.000002 0.000000 0.999992 0.000000 2780.dat
1 0 1079.999000 -238.000000 -419.978700 0.999994 0.000000 0.000000 0.000000 0.000000 1.000002 0.000000 -0.999992 0.000000 2780.dat
1 0 1079.999000 -238.000100 -499.985100 -0.999994 0.000000 0.000001 0.000001 0.000000 1.000002 0.000000 0.999992 0.000000 2780.dat
1 0 1079.999000 -197.999900 -419.978700 -0.999993 0.000000 0.000001 0.000001 0.000000 1.000001 0.000000 0.999992 0.000000 2780.dat
1 0 1079.998000 -157.999800 -419.978700 0.999993 0.000000 0.000000 0.000000 0.000000 1.000001 0.000000 -0.999992 0.000000 2780.dat
1 0 1079.999000 -197.999900 -499.985100 -0.999993 0.000000 0.000001 0.000001 0.000000 1.000001 0.000000 0.999992 0.000000 2780.dat
1 0 1079.999000 -157.999800 -499.985100 0.999993 0.000000 0.000000 0.000000 0.000000 1.000001 0.000000 -0.999992 0.000000 2780.dat
1 0 1079.989000 -478.000000 -419.983800 -0.999992 -0.000001 0.000001 0.000001 0.000000 1.000000 -0.000001 0.999992 0.000000 2780.dat
1 0 1079.989000 -478.000000 -499.983100 -0.999992 -0.000001 0.000001 0.000001 0.000000 1.000000 -0.000001 0.999992 0.000000 2780.dat
1 71 1069.989000 -478.000000 -459.983600 0.000000 -0.999992 0.000000 -1.000000 0.000000 0.000000 0.000000 0.000000 -0.999992 32278.dat
1 0 1079.989000 -558.000000 -499.983100 0.999992 0.000000 0.000000 0.000000 1.000000 0.000000 0.000000 0.000000 0.999992 2780.dat
1 0 1079.989000 -558.000000 -419.983800 0.999992 0.000000 0.000000 0.000000 1.000000 0.000000 0.000000 0.000000 0.999992 2780.dat
1 71 1069.991000 -568.011500 -459.986300 0.000000 0.000000 0.999992 0.000000 1.000000 0.000000 -0.999992 0.000000 0.000000 3703.dat
1 71 1059.991000 -544.011500 -519.985800 0.000000 0.000000 -0.999992 0.000000 1.000000 0.000000 0.999992 0.000000 0.000000 4282.dat
1 0 1090.003000 -288.000500 280.002100 -0.000001 0.999994 0.000000 -1.000002 -0.000001 0.000000 0.000000 0.000000 0.999992 2780.dat
1 0 1090.003000 -148.000200 280.002100 0.000000 0.999992 0.000000 -1.000000 0.000000 0.000000 0.000000 0.000000 0.999991 2780.dat
1 0 1089.995000 -428.000300 280.002200 -0.000001 1.000000 0.000000 -1.000008 -0.000001 0.000000 0.000000 0.000000 0.999992 2780.dat
1 71 1110.003000 -28.000090 1059.995000 0.000000 0.000000 -1.000010 0.000000 1.000000 0.000000 1.000010 0.000000 0.000000 3894.dat
1 1 1090.003000 -18.000090 1099.995000 -1.000010 0.000000 0.000000 0.000000 1.000000 0.000000 0.000000 0.000000 -1.000010 6558.dat
1 1 1090.003000 -18.000090 1019.996000 -1.000010 0.000000 0.000000 0.000000 1.000000 0.000000 0.000000 0.000000 -1.000010 6558.dat
1 71 1090.004000 -218.000200 1059.995000 0.000000 1.000010 0.000000 0.000000 0.000000 -1.000000 -1.000010 0.000000 0.000000 64179.dat
1 0 1090.003000 -288.000500 1039.995000 -0.000001 1.000012 0.000000 -1.000002 -0.000001 0.000000 0.000000 0.000000 1.000010 2780.dat
1 0 1090.003000 -288.000400 1079.995000 -0.000001 1.000012 0.000000 -1.000002 -0.000001 0.000000 0.000000 0.000000 1.000010 2780.dat
1 71 1070.004000 -28.000220 1059.995000 0.000000 0.000000 -1.000010 0.000000 1.000000 0.000000 1.000010 0.000000 0.000000 3894.dat
1 71 1089.989000 -498.000300 1060.000000 0.000000 1.000000 0.000000 0.000000 0.000000 -1.000000 -1.000000 0.000000 0.000000 64179.dat
1 71 1090.004000 -78.000110 1059.995000 0.000000 1.000010 0.000000 0.000000 0.000000 -1.000000 -1.000009 0.000000 0.000000 64179.dat
1 0 1090.004000 -148.000200 1039.995000 0.000000 1.000010 0.000000 -1.000000 0.000000 0.000000 0.000000 0.000000 1.000009 2780.dat
1 0 1090.004000 -148.000100 1079.995000 0.000000 1.000010 0.000000 -1.000000 0.000000 0.000000 0.000000 0.000000 1.000009 2780.dat
1 71 1090.004000 -358.000400 1059.995000 0.000000 1.000010 0.000000 0.000000 0.000000 -1.000000 -1.000010 0.000000 0.000000 64179.dat
1 0 1089.994000 -428.000400 1039.995000 -0.000001 1.000018 0.000000 -1.000008 -0.000001 0.000000 0.000000 0.000000 1.000010 2780.dat
1 0 1089.994000 -428.000300 1079.995000 -0.000001 1.000018 0.000000 -1.000008 -0.000001 0.000000 0.000000 0.000000 1.000010 2780.dat
1 0 1080.003000 -278.000300 1019.996000 -1.000012 0.000000 0.000001 0.000001 0.000000 1.000002 0.000000 1.000010 0.000000 2780.dat
1 0 1080.003000 -278.000300 1099.995000 -1.000012 0.000000 0.000001 0.000001 0.000000 1.000002 0.000000 1.000010 0.000000 2780.dat
1 0 1080.003000 -238.000200 1099.995000 1.000012 0.000000 0.000000 0.000000 0.000000 1.000002 0.000000 -1.000010 0.000000 2780.dat
1 0 1080.003000 -238.000300 1019.996000 -1.000012 0.000000 0.000001 0.000001 0.000000 1.000002 0.000000 1.000010 0.000000 2780.dat
1 0 1080.003000 -198.000200 1099.995000 -1.000011 0.000000 0.000001 0.000001 0.000000 1.000001 0.000000 1.000010 0.000000 2780.dat
1 0 1080.003000 -158.000100 1099.995000 1.000011 0.000000 0.000000 0.000000 0.000000 1.000001 0.000000 -1.000010 0.000000 2780.dat
1 0 1080.003000 -198.000200 1019.996000 -1.000011 0.000000 0.000001 0.000001 0.000000 1.000001 0.000000 1.000010 0.000000 2780.dat
1 0 1080.003000 -158.000100 1019.996000 1.000011 0.000000 0.000000 0.000000 0.000000 1.000001 0.000000 -1.000010 0.000000 2780.dat
1 0 1079.989000 -437.999900 1100.001000 -1.000001 -0.000001 0.000001 0.000001 0.000000 1.000001 0.000000 1.000000 0.000000 2780.dat
1 0 1079.988000 -437.999900 1020.002000 -1.000001 -0.000001 0.000001 0.000001 0.000000 1.000001 0.000000 1.000000 0.000000 2780.dat
1 0 1080.004000 -138.000100 1019.996000 -1.000010 0.000000 0.000000 0.000000 0.000000 1.000000 0.000000 1.000009 0.000000 2780.dat
1 0 1080.004000 -138.000100 1099.995000 -1.000010 0.000000 0.000000 0.000000 0.000000 1.000000 0.000000 1.000009 0.000000 2780.dat
1 0 1080.004000 -98.000110 1099.995000 1.000010 0.000000 0.000000 0.000000 0.000000 1.000000 0.000000 -1.000009 0.000000 2780.dat
1 0 1080.004000 -98.000240 1019.996000 -1.000010 0.000000 0.000000 0.000000 0.000000 1.000000 0.000000 1.000009 0.000000 2780.dat
1 0 1079.994000 -418.000300 1019.996000 -1.000018 0.000000 0.000001 0.000001 0.000000 1.000008 0.000000 1.000010 0.000000 2780.dat
1 0 1079.994000 -418.000300 1099.996000 -1.000018 0.000000 0.000001 0.000001 0.000000 1.000008 0.000000 1.000010 0.000000 2780.dat
1 0 1079.994000 -377.999900 1099.996000 1.000018 0.000000 0.000000 0.000000 0.000000 1.000008 0.000000 -1.000010 0.000000 2780.dat
1 0 1079.994000 -378.000200 1019.996000 -1.000018 0.000000 0.000001 0.000001 0.000000 1.000008 0.000000 1.000010 0.000000 2780.dat
1 0 1079.994000 -337.999500 1099.996000 -1.000017 0.000000 0.000001 0.000001 0.000000 1.000007 0.000000 1.000010 0.000000 2780.dat
1 0 1079.994000 -337.999500 1019.996000 -1.000017 0.000000 0.000001 0.000001 0.000000 1.000007 0.000000 1.000010 0.000000 2780.dat
1 71 1070.004000 -138.000200 1099.995000 0.000000 -1.000010 0.000000 0.000000 0.000000 -1.000000 1.000010 0.000000 0.000000 32524.dat
1 0 1079.995000 -298.000100 1099.995000 -1.000014 -0.000001 0.000001 0.000001 0.000000 1.000004 0.000000 1.000010 0.000000 2780.dat
1 0 1079.994000 -298.000100 1019.996000 -1.000014 -0.000001 0.000001 0.000001 0.000000 1.000004 0.000000 1.000010 0.000000 2780.dat
1 71 1070.004000 -138.000200 1019.996000 0.000000 -1.000010 0.000000 0.000000 0.000000 -1.000000 1.000010 0.000000 0.000000 32524.dat
1 71 1069.992000 -337.999800 1099.997000 0.000000 -1.000010 0.000000 0.000000 0.000000 1.000000 -1.000010 0.000000 0.000000 41239.dat
1 71 1069.992000 -337.999900 1019.997000 0.000000 -1.000010 0.000000 0.000000 0.000000 1.000000 -1.000010 0.000000 0.000000 41239.dat
1 71 1049.979000 -551.999600 1020.003000 0.000000 0.000000 -1.000000 0.000000 1.000000 0.000000 1.000000 0.000000 0.000000 3743.dat
1 71 1049.980000 -551.999600 1099.998000 0.000000 0.000000 -1.000000 0.000000 1.000000 0.000000 1.000000 0.000000 0.000000 3743.dat
1 71 1069.979000 -567.999600 1060.001000 0.000000 0.000000 1.000000 0.000000 1.000000 0.000000 -1.000000 0.000000 0.000000 3703.dat
1 71 1069.979000 -477.999700 1060.001000 0.000000 -1.000000 0.000000 -1.000000 0.000000 0.000000 0.000000 0.000000 -1.000000 32278.dat
1 0 1079.989000 -478.000300 1100.000000 0.999992 0.000000 0.000000 0.000000 1.000000 0.000000 0.000000 0.000000 0.999992 2780.dat
1 0 1079.989000 -478.000300 1020.001000 0.999992 0.000000 0.000000 0.000000 1.000000 0.000000 0.000000 0.000000 0.999992 2780.dat
1 71 1059.980000 -543.999600 1060.005000 0.000000 0.000000 -0.999992 0.000000 1.000000 0.000000 0.999992 0.000000 0.000000 3832.dat
1 0 1080.003000 -278.000300 340.005300 -0.999994 0.000000 0.000001 0.000001 0.000000 1.000002 0.000000 0.999992 0.000000 2780.dat
1 0 1080.003000 -238.000200 340.005300 0.999994 0.000000 0.000000 0.000000 0.000000 1.000002 0.000000 -0.999992 0.000000 2780.dat
1 0 1080.003000 -198.000100 340.005400 -0.999993 0.000000 0.000001 0.000001 0.000000 1.000001 0.000000 0.999992 0.000000 2780.dat
1 0 1080.003000 -158.000100 340.005600 0.999993 0.000000 0.000000 0.000000 0.000000 1.000001 0.000000 -0.999992 0.000000 2780.dat
1 0 1079.987000 -437.999800 340.010900 -0.999983 -0.000001 0.000001 0.000001 0.000000 1.000001 0.000000 0.999983 0.000000 2780.dat
1 0 1080.003000 -138.000100 340.005600 -0.999992 0.000000 0.000000 0.000000 0.000000 1.000000 0.000000 0.999991 0.000000 2780.dat
1 0 1080.003000 -98.000060 340.005600 0.999992 0.000000 0.000000 0.000000 0.000000 1.000000 0.000000 -0.999991 0.000000 2780.dat
1 0 1079.993000 -418.000200 340.005700 -1.000000 0.000000 0.000001 0.000001 0.000000 1.000008 0.000000 0.999992 0.000000 2780.dat
1 0 1079.993000 -377.999900 340.005700 1.000000 0.000000 0.000000 0.000000 0.000000 1.000008 0.000000 -0.999992 0.000000 2780.dat
1 0 1079.993000 -337.999400 340.005700 -0.999999 0.000000 0.000001 0.000001 0.000000 1.000007 0.000000 0.999992 0.000000 2780.dat
1 71 1070.004000 -138.000100 340.005600 0.000000 -0.999992 0.000000 0.000000 0.000000 -1.000000 0.999992 0.000000 0.000000 32524.dat
1 0 1079.995000 -298.000100 340.005300 -0.999996 -0.000001 0.000001 0.000001 0.000000 1.000004 0.000000 0.999992 0.000000 2780.dat
1 71 1069.992000 -337.999800 340.007400 0.000000 -0.999992 0.000000 0.000000 0.000000 1.000000 -0.999992 0.000000 0.000000 41239.dat
1 0 1079.989000 -478.000200 340.005400 -0.999992 -0.000001 0.000001 0.000001 0.000000 1.000000 -0.000001 0.999992 0.000000 2780.dat
1 0 1079.989000 -558.000200 340.005400 0.999992 0.000000 0.000000 0.000000 1.000000 0.000000 0.000000 0.000000 0.999992 2780.dat
1 71 1110.003000 -28.000090 300.001500 0.000000 0.000000 -0.999992 0.000000 1.000000 0.000000 0.999992 0.000000 0.000000 3894.dat
1 71 1090.003000 -218.000200 300.001600 0.000000 0.999992 0.000000 0.000000 0.000000 -1.000000 -0.999992 0.000000 0.000000 64179.dat
1 0 1090.003000 -288.000400 320.003900 -0.000001 0.999994 0.000000 -1.000002 -0.000001 0.000000 0.000000 0.000000 0.999992 2780.dat
1 71 1070.004000 -28.000220 300.001500 0.000000 0.000000 -0.999992 0.000000 1.000000 0.000000 0.999992 0.000000 0.000000 3894.dat
1 71 1089.989000 -498.000200 300.006100 0.000000 0.999982 0.000000 0.000000 0.000000 -1.000000 -0.999982 0.000000 0.000000 64179.dat
1 71 1090.003000 -78.000060 300.001500 0.000000 0.999992 0.000000 0.000000 0.000000 -1.000000 -0.999991 0.000000 0.000000 64179.dat
1 0 1090.003000 -148.000100 320.003800 0.000000 0.999992 0.000000 -1.000000 0.000000 0.000000 0.000000 0.000000 0.999991 2780.dat
1 71 1090.003000 -358.000400 300.001600 0.000000 0.999992 0.000000 0.000000 0.000000 -1.000000 -0.999992 0.000000 0.000000 64179.dat
1 0 1089.995000 -428.000200 320.004200 -0.000001 1.000000 0.000000 -1.000008 -0.000001 0.000000 0.000000 0.000000 0.999992 2780.dat
1 71 1069.990000 -478.000200 300.006500 0.000000 -0.999992 0.000000 -1.000000 0.000000 0.000000 0.000000 0.000000 -0.999992 32278.dat
1 71 1069.990000 -568.010300 300.006400 0.000000 0.000000 0.999992 0.000000 1.000000 0.000000 -0.999992 0.000000 0.000000 3703.dat
1 71 1059.990000 -544.010300 300.006300 0.000000 0.000000 -0.999992 0.000000 1.000000 0.000000 0.999992 0.000000 0.000000 3832.dat
1 71 1110.000000 -27.999910 1820.000000 0.000000 0.000000 -1.000000 0.000000 1.000000 0.000000 1.000000 0.000000 0.000000 3894.dat
1 1 1090.000000 -17.999910 1860.000000 -1.000000 0.000000 0.000000 0.000000 1.000000 0.000000 0.000000 0.000000 -1.000000 6558.dat
1 1 1090.000000 -17.999910 1780.000000 -1.000000 0.000000 0.000000 0.000000 1.000000 0.000000 0.000000 0.000000 -1.000000 6558.dat
1 71 1089.989000 -498.000200 1820.000000 0.000000 1.000000 0.000000 0.000000 0.000000 -1.000000 -1.000000 0.000000 0.000000 64179.dat
1 71 1089.999000 -78.000000 1820.000000 0.000000 1.000000 0.000000 0.000000 0.000000 -1.000000 -1.000000 0.000000 0.000000 64179.dat
1 0 1089.999000 -148.000100 1800.000000 0.000000 1.000000 0.000000 -1.000000 0.000000 0.000000 0.000000 0.000000 1.000000 2780.dat
1 0 1089.999000 -148.000000 1840.000000 0.000000 1.000000 0.000000 -1.000000 0.000000 0.000000 0.000000 0.000000 1.000000 2780.dat
1 71 1089.999000 -218.000000 1820.000000 0.000000 1.000000 0.000000 0.000000 0.000000 -1.000000 -1.000000 0.000000 0.000000 64179.dat
1 0 1089.999000 -288.000300 1800.000000 -0.000001 1.000002 0.000000 -1.000002 -0.000001 0.000000 0.000000 0.000000 1.000000 2780.dat
1 0 1089.999000 -288.000200 1840.000000 -0.000001 1.000002 0.000000 -1.000002 -0.000001 0.000000 0.000000 0.000000 1.000000 2780.dat
1 71 1070.000000 -28.000000 1820.000000 0.000000 0.000000 -1.000000 0.000000 1.000000 0.000000 1.000000 0.000000 0.000000 3894.dat
1 0 1079.989000 -437.999800 1860.002000 -1.000001 -0.000001 0.000001 0.000001 0.000000 1.000001 0.000000 1.000000 0.000000 2780.dat
1 0 1079.989000 -437.999800 1780.001000 -1.000001 -0.000001 0.000001 0.000001 0.000000 1.000001 0.000000 1.000000 0.000000 2780.dat
1 0 1080.000000 -138.000000 1780.000000 -1.000000 0.000000 0.000000 0.000000 0.000000 1.000000 0.000000 1.000000 0.000000 2780.dat
1 0 1079.999000 -138.000000 1860.000000 -1.000000 0.000000 0.000000 0.000000 0.000000 1.000000 0.000000 1.000000 0.000000 2780.dat
1 0 1079.999000 -98.000000 1860.000000 1.000000 0.000000 0.000000 0.000000 0.000000 1.000000 0.000000 -1.000000 0.000000 2780.dat
1 0 1080.000000 -98.000110 1780.000000 -1.000000 0.000000 0.000000 0.000000 0.000000 1.000000 0.000000 1.000000 0.000000 2780.dat
1 71 1069.989000 -337.999700 1860.002000 0.000000 -1.000000 0.000000 0.000000 0.000000 1.000000 -1.000000 0.000000 0.000000 41239.dat
1 71 1069.989000 -337.999800 1780.001000 0.000000 -1.000000 0.000000 0.000000 0.000000 1.000000 -1.000000 0.000000 0.000000 41239.dat
1 0 1079.999000 -278.000100 1780.000000 -1.000002 0.000000 0.000001 0.000001 0.000000 1.000002 0.000000 1.000000 0.000000 2780.dat
1 0 1079.999000 -278.000100 1860.000000 -1.000002 0.000000 0.000001 0.000001 0.000000 1.000002 0.000000 1.000000 0.000000 2780.dat
1 0 1079.999000 -238.000000 1860.000000 1.000002 0.000000 0.000000 0.000000 0.000000 1.000002 0.000000 -1.000000 0.000000 2780.dat
1 0 1079.999000 -238.000200 1780.000000 -1.000002 0.000000 0.000001 0.000001 0.000000 1.000002 0.000000 1.000000 0.000000 2780.dat
1 0 1079.999000 -198.000000 1860.000000 -1.000001 0.000000 0.000001 0.000001 0.000000 1.000001 0.000000 1.000000 0.000000 2780.dat
1 0 1079.998000 -157.999900 1860.000000 1.000001 0.000000 0.000000 0.000000 0.000000 1.000001 0.000000 -1.000000 0.000000 2780.dat
1 0 1079.999000 -198.000000 1780.000000 -1.000001 0.000000 0.000001 0.000001 0.000000 1.000001 0.000000 1.000000 0.000000 2780.dat
1 0 1079.999000 -157.999900 1780.000000 1.000001 0.000000 0.000000 0.000000 0.000000 1.000001 0.000000 -1.000000 0.000000 2780.dat
1 71 1049.979000 -551.999600 1740.002000 0.000000 0.000000 -1.000000 0.000000 1.000000 0.000000 1.000000 0.000000 0.000000 3743.dat
1 71 1049.979000 -551.999600 1820.000000 0.000000 0.000000 -1.000000 0.000000 1.000000 0.000000 1.000000 0.000000 0.000000 3743.dat
1 71 1069.980000 -477.999700 1820.001000 0.000000 -1.000000 0.000000 -1.000000 0.000000 0.000000 0.000000 0.000000 -1.000000 32278.dat
1 71 1069.980000 -567.999600 1820.001000 0.000000 0.000000 1.000000 0.000000 1.000000 0.000000 -1.000000 0.000000 0.000000 3703.dat
1 0 1079.989000 -478.000200 1860.000000 0.999992 0.000000 0.000000 0.000000 1.000000 0.000000 0.000000 0.000000 0.999992 2780.dat
1 0 1079.989000 -478.000200 1780.000000 0.999992 0.000000 0.000000 0.000000 1.000000 0.000000 0.000000 0.000000 0.999992 2780.dat
1 71 1059.980000 -543.999600 1880.002000 0.000000 0.000000 -0.999992 0.000000 1.000000 0.000000 0.999992 0.000000 0.000000 4282.dat
1 71 1089.999000 -358.000100 1820.000000 0.000000 1.000000 0.000000 0.000000 0.000000 -1.000000 -1.000000 0.000000 0.000000 64179.dat
1 0 1079.989000 -418.000000 1780.000000 -1.000008 0.000000 0.000001 0.000001 0.000000 1.000008 0.000000 1.000000 0.000000 2780.dat
1 0 1079.989000 -418.000000 1860.001000 -1.000008 0.000000 0.000001 0.000001 0.000000 1.000008 0.000000 1.000000 0.000000 2780.dat
1 0 1089.989000 -428.000100 1800.000000 -0.000001 1.000008 0.000000 -1.000008 -0.000001 0.000000 0.000000 0.000000 1.000000 2780.dat
1 0 1089.989000 -428.000000 1840.000000 -0.000001 1.000008 0.000000 -1.000008 -0.000001 0.000000 0.000000 0.000000 1.000000 2780.dat
1 0 1079.989000 -377.999700 1860.001000 1.000008 0.000000 0.000000 0.000000 0.000000 1.000008 0.000000 -1.000000 0.000000 2780.dat
1 0 1079.989000 -377.999900 1780.000000 -1.000008 0.000000 0.000001 0.000001 0.000000 1.000008 0.000000 1.000000 0.000000 2780.dat
1 0 1079.989000 -337.999200 1860.001000 -1.000007 0.000000 0.000001 0.000001 0.000000 1.000007 0.000000 1.000000 0.000000 2780.dat
1 0 1079.990000 -337.999200 1780.000000 -1.000007 0.000000 0.000001 0.000001 0.000000 1.000007 0.000000 1.000000 0.000000 2780.dat
1 71 1069.999000 -137.999900 1860.000000 0.000000 -1.000000 0.000000 0.000000 0.000000 -1.000000 1.000000 0.000000 0.000000 32524.dat
1 0 1079.990000 -297.999800 1860.000000 -1.000004 -0.000001 0.000001 0.000001 0.000000 1.000004 0.000000 1.000000 0.000000 2780.dat
1 0 1079.989000 -297.999800 1780.000000 -1.000004 -0.000001 0.000001 0.000001 0.000000 1.000004 0.000000 1.000000 0.000000 2780.dat
1 71 1069.999000 -137.999900 1780.000000 0.000000 -1.000000 0.000000 0.000000 0.000000 -1.000000 1.000000 0.000000 0.000000 32524.dat
1 71 1049.978000 -551.999600 619.988800 0.000000 0.000000 -0.999992 0.000000 1.000000 0.000000 0.999992 0.000000 0.000000 3743.dat
1 71 1049.978000 -551.999600 539.990000 0.000000 0.000000 -0.999992 0.000000 1.000000 0.000000 0.999992 0.000000 0.000000 3743.dat
1 71 1049.978000 -551.999600 459.990900 0.000000 0.000000 -0.999992 0.000000 1.000000 0.000000 0.999992 0.000000 0.000000 3743.dat
1 71 1049.978000 -551.999600 779.988600 0.000000 0.000000 -0.999992 0.000000 1.000000 0.000000 0.999992 0.000000 0.000000 3743.dat
1 71 1049.978000 -551.999600 699.989300 0.000000 0.000000 -0.999992 0.000000 1.000000 0.000000 0.999992 0.000000 0.000000 3743.dat
1 71 1049.978000 -551.999600 379.991400 0.000000 0.000000 -0.999992 0.000000 1.000000 0.000000 0.999992 0.000000 0.000000 3743.dat
1 71 1049.991000 -552.010300 140.009300 0.000000 0.000000 -0.999992 0.000000 1.000000 0.000000 0.999992 0.000000 0.000000 3743.dat
1 71 1049.991000 -552.010300 60.008420 0.000000 0.000000 -0.999992 0.000000 1.000000 0.000000 0.999992 0.000000 0.000000 3743.dat
1 71 1049.991000 -552.010300 -19.990820 0.000000 0.000000 -0.999992 0.000000 1.000000 0.000000 0.999992 0.000000 0.000000 3743.dat
1 71 1049.990000 -552.010300 300.007600 0.000000 0.000000 -0.999992 0.000000 1.000000 0.000000 0.999992 0.000000 0.000000 3743.dat
1 71 1049.990000 -552.010300 220.007800 0.000000 0.000000 -0.999992 0.000000 1.000000 0.000000 0.999992 0.000000 0.000000 3743.dat
1 71 1049.991000 -552.010300 -99.989810 0.000000 0.000000 -0.999992 0.000000 1.000000 0.000000 0.999992 0.000000 0.000000 3743.dat
1 71 1049.991000 -552.011500 -339.980600 0.000000 0.000000 -0.999992 0.000000 1.000000 0.000000 0.999992 0.000000 0.000000 3743.dat
1 71 1049.991000 -552.011500 -419.987500 0.000000 0.000000 -0.999992 0.000000 1.000000 0.000000 0.999992 0.000000 0.000000 3743.dat
1 71 1049.991000 -552.011500 -499.987000 0.000000 0.000000 -0.999992 0.000000 1.000000 0.000000 0.999992 0.000000 0.000000 3743.dat
1 71 1049.990000 -552.011500 -179.989300 0.000000 0.000000 -0.999992 0.000000 1.000000 0.000000 0.999992 0.000000 0.000000 3743.dat
1 71 1049.990000 -552.011500 -259.988500 0.000000 0.000000 -0.999992 0.000000 1.000000 0.000000 0.999992 0.000000 0.000000 3743.dat
1 71 1049.991000 -552.011500 -579.986300 0.000000 0.000000 -0.999992 0.000000 1.000000 0.000000 0.999992 0.000000 0.000000 3743.dat
1 71 1049.991000 -552.011500 -659.983300 0.000000 0.000000 -0.999992 0.000000 1.000000 0.000000 0.999992 0.000000 0.000000 3743.dat
1 71 1089.979000 -517.999600 680.002400 0.000000 -1.000000 0.000000 -1.000000 0.000000 0.000000 0.000000 0.000000 -1.000000 64178.dat
1 71 1089.979000 -517.999600 900.001700 0.000000 -1.000000 0.000000 -1.000000 0.000000 0.000000 0.000000 0.000000 -1.000000 64178.dat
1 71 1089.979000 -517.999700 1220.001000 0.000000 -1.000000 0.000000 -1.000000 0.000000 0.000000 0.000000 0.000000 -1.000000 64178.dat
1 71 1089.979000 -517.999600 1440.002000 0.000000 -1.000000 0.000000 -1.000000 0.000000 0.000000 0.000000 0.000000 -1.000000 64178.dat
1 71 1089.979000 -517.999600 1660.000000 0.000000 -1.000000 0.000000 -1.000000 0.000000 0.000000 0.000000 0.000000 -1.000000 64178.dat
1 71 1089.979000 -517.999600 1980.000000 0.000000 -1.000000 0.000000 -1.000000 0.000000 0.000000 0.000000 0.000000 -1.000000 64178.dat
1 71 1089.978000 -517.999600 2220.002000 0.000000 -1.000000 0.000000 -1.000000 0.000000 0.000000 0.000000 0.000000 -1.000000 64178.dat
1 71 1089.979000 -517.999800 460.003600 0.000000 -0.999992 0.000000 -1.000000 0.000000 0.000000 0.000000 0.000000 -0.999992 64178.dat
1 71 1089.990000 -518.010100 -79.989070 0.000000 -1.000021 0.000000 -1.000029 0.000000 0.000000 0.000000 0.000000 -0.999992 64178.dat
1 71 1089.990000 -518.010100 140.007600 0.000000 -1.000021 0.000000 -1.000029 0.000000 0.000000 0.000000 0.000000 -0.999992 64178.dat
1 71 1089.990000 -518.010300 -299.988000 0.000000 -1.000013 0.000000 -1.000029 0.000000 0.000000 0.000000 0.000000 -0.999984 64178.dat
1 71 1090.000000 -517.992700 -859.976300 0.000000 -1.000006 0.000000 -1.000015 0.000000 0.000000 0.000000 0.000000 -0.999992 64178.dat
1 71 1089.999000 -517.992700 -619.981900 0.000000 -1.000007 0.000000 -1.000015 0.000000 0.000000 0.000000 0.000000 -0.999992 64178.dat
0 STUDIOSTEPDESC External Model - Front
0 STEP
1 71 390.020600 -551.999800 179.997400 0.000000 0.000000 1.000008 0.000000 1.000000 0.000000 -1.000008 0.000000 0.000000 3743.dat
1 71 390.020600 -551.999800 500.003000 0.000000 0.000000 1.000008 0.000000 1.000000 0.000000 -1.000008 0.000000 0.000000 3743.dat
1 71 390.020400 -551.999800 420.002000 0.000000 0.000000 1.000008 0.000000 1.000000 0.000000 -1.000008 0.000000 0.000000 3743.dat
1 71 390.020800 -551.999800 -59.997640 0.000000 0.000000 1.000008 0.000000 1.000000 0.000000 -1.000008 0.000000 0.000000 3743.dat
1 71 390.020900 -551.999800 100.001700 0.000000 0.000000 1.000008 0.000000 1.000000 0.000000 -1.000008 0.000000 0.000000 3743.dat
1 71 390.020800 -551.999800 20.005030 0.000000 0.000000 1.000008 0.000000 1.000000 0.000000 -1.000008 0.000000 0.000000 3743.dat
1 0 360.020500 -557.999800 740.006700 -1.000008 0.000000 0.000000 0.000000 1.000000 0.000000 0.000000 0.000000 -1.000008 2780.dat
1 0 360.020600 -477.999800 620.005700 -1.000008 0.000000 0.000000 0.000000 1.000000 0.000000 0.000000 0.000000 -1.000008 2780.dat
1 0 360.020500 -557.999800 620.005700 -1.000008 0.000000 0.000000 0.000000 1.000000 0.000000 0.000000 0.000000 -1.000008 2780.dat
1 0 360.020500 -557.999800 520.004200 -1.000008 0.000000 0.000000 0.000000 1.000000 0.000000 0.000000 0.000000 -1.000008 2780.dat
1 0 360.020500 -477.999800 480.003800 -1.000008 0.000000 0.000000 0.000000 1.000000 0.000000 0.000000 0.000000 -1.000008 2780.dat
1 0 360.020500 -557.999800 480.003800 -1.000008 0.000000 0.000000 0.000000 1.000000 0.000000 0.000000 0.000000 -1.000008 2780.dat
1 0 360.020500 -477.999800 520.004200 -1.000008 0.000000 0.000000 0.000000 1.000000 0.000000 0.000000 0.000000 -1.000008 2780.dat
1 0 360.020800 -557.999800 440.003000 -1.000008 0.000000 0.000000 0.000000 1.000000 0.000000 0.000000 0.000000 -1.000008 2780.dat
1 0 360.020600 -477.999800 400.002500 -1.000008 0.000000 0.000000 0.000000 1.000000 0.000000 0.000000 0.000000 -1.000008 2780.dat
1 0 360.020800 -557.999800 400.002700 -1.000008 0.000000 0.000000 0.000000 1.000000 0.000000 0.000000 0.000000 -1.000008 2780.dat
1 0 360.020600 -477.999800 440.002800 -1.000008 0.000000 0.000000 0.000000 1.000000 0.000000 0.000000 0.000000 -1.000008 2780.dat
1 71 390.020700 -551.999800 -300.002600 0.000000 0.000000 1.000008 0.000000 1.000000 0.000000 -1.000008 0.000000 0.000000 3743.dat
1 71 390.020900 -551.999800 -140.001900 0.000000 0.000000 1.000008 0.000000 1.000000 0.000000 -1.000008 0.000000 0.000000 3743.dat
1 71 390.020700 -551.999800 -220.001800 0.000000 0.000000 1.000008 0.000000 1.000000 0.000000 -1.000008 0.000000 0.000000 3743.dat
1 0 360.020600 -557.999800 200.000900 -1.000008 0.000000 0.000000 0.000000 1.000000 0.000000 0.000000 0.000000 -1.000008 2780.dat
1 0 360.020600 -477.999800 160.000600 -1.000008 0.000000 0.000000 0.000000 1.000000 0.000000 0.000000 0.000000 -1.000008 2780.dat
1 0 360.020600 -557.999800 160.000500 -1.000008 0.000000 0.000000 0.000000 1.000000 0.000000 0.000000 0.000000 -1.000008 2780.dat
1 0 360.020600 -477.999800 200.000900 -1.000008 0.000000 0.000000 0.000000 1.000000 0.000000 0.000000 0.000000 -1.000008 2780.dat
1 71 370.020900 -477.999800 39.999820 0.000000 -1.000008 0.000000 -1.000000 0.000000 0.000000 0.000000 0.000000 -1.000008 32525.dat
1 71 370.020800 -567.999800 19.999720 0.000000 0.000000 1.000008 0.000000 1.000000 0.000000 -1.000008 0.000000 0.000000 3895.dat
1 0 360.020700 -557.999800 120.000500 -1.000008 0.000000 0.000000 0.000000 1.000000 0.000000 0.000000 0.000000 -1.000008 2780.dat
1 0 360.020800 -477.999800 80.000160 -1.000008 0.000000 0.000000 0.000000 1.000000 0.000000 0.000000 0.000000 -1.000008 2780.dat
1 0 360.020700 -557.999800 80.000220 -1.000008 0.000000 0.000000 0.000000 1.000000 0.000000 0.000000 0.000000 -1.000008 2780.dat
1 0 360.020800 -477.999800 120.000500 -1.000008 0.000000 0.000000 0.000000 1.000000 0.000000 0.000000 0.000000 -1.000008 2780.dat
1 0 360.020700 -557.999800 -20.001500 -1.000008 0.000000 0.000000 0.000000 1.000000 0.000000 0.000000 0.000000 -1.000008 2780.dat
1 0 360.020700 -477.999800 -60.001820 -1.000008 0.000000 0.000000 0.000000 1.000000 0.000000 0.000000 0.000000 -1.000008 2780.dat
1 0 360.020700 -557.999800 -60.001820 -1.000008 0.000000 0.000000 0.000000 1.000000 0.000000 0.000000 0.000000 -1.000008 2780.dat
1 0 360.020700 -477.999800 -20.001500 -1.000008 0.000000 0.000000 0.000000 1.000000 0.000000 0.000000 0.000000 -1.000008 2780.dat
1 71 370.021000 -477.999800 -200.001500 0.000000 -1.000008 0.000000 -1.000000 0.000000 0.000000 0.000000 0.000000 -1.000008 32525.dat
1 71 370.021000 -567.999800 -200.001500 0.000000 0.000000 -1.000008 0.000000 1.000000 0.000000 1.000008 0.000000 0.000000 2730.dat
1 71 390.021900 -551.999800 -700.006700 0.000000 0.000000 1.000008 0.000000 1.000000 0.000000 -1.000008 0.000000 0.000000 3743.dat
1 71 390.021200 -551.999800 -620.004900 0.000000 0.000000 1.000008 0.000000 1.000000 0.000000 -1.000008 0.000000 0.000000 3743.dat
1 71 390.021200 -551.999800 -540.004200 0.000000 0.000000 1.000008 0.000000 1.000000 0.000000 -1.000008 0.000000 0.000000 3743.dat
1 0 360.020800 -477.999800 -100.000700 -1.000008 0.000000 0.000000 0.000000 1.000000 0.000000 0.000000 0.000000 -1.000008 2780.dat
1 0 360.020800 -477.999800 -140.001000 -1.000008 0.000000 0.000000 0.000000 1.000000 0.000000 0.000000 0.000000 -1.000008 2780.dat
1 0 360.020800 -557.999800 -140.001000 -1.000008 0.000000 0.000000 0.000000 1.000000 0.000000 0.000000 0.000000 -1.000008 2780.dat
1 0 360.020800 -557.999800 -280.002100 -1.000008 0.000000 0.000000 0.000000 1.000000 0.000000 0.000000 0.000000 -1.000008 2780.dat
1 0 360.020800 -477.999800 -280.002100 -1.000008 0.000000 0.000000 0.000000 1.000000 0.000000 0.000000 0.000000 -1.000008 2780.dat
1 0 360.020800 -557.999800 -240.001700 -1.000008 0.000000 0.000000 0.000000 1.000000 0.000000 0.000000 0.000000 -1.000008 2780.dat
1 0 360.020800 -477.999800 -240.001700 -1.000008 0.000000 0.000000 0.000000 1.000000 0.000000 0.000000 0.000000 -1.000008 2780.dat
1 0 360.019700 -557.999800 -320.003100 -1.000008 0.000000 0.000000 0.000000 1.000000 0.000000 0.000000 0.000000 -1.000008 2780.dat
1 0 360.019700 -477.999800 -360.003500 -1.000008 0.000000 0.000000 0.000000 1.000000 0.000000 0.000000 0.000000 -1.000008 2780.dat
1 0 360.019700 -477.999800 -320.003200 -1.000008 0.000000 0.000000 0.000000 1.000000 0.000000 0.000000 0.000000 -1.000008 2780.dat
1 0 360.019700 -557.999800 -360.003500 -1.000008 0.000000 0.000000 0.000000 1.000000 0.000000 0.000000 0.000000 -1.000008 2780.dat
1 71 390.021600 -551.999800 -860.007300 0.000000 0.000000 1.000008 0.000000 1.000000 0.000000 -1.000008 0.000000 0.000000 3743.dat
1 71 390.021600 -551.999800 -780.006600 0.000000 0.000000 1.000008 0.000000 1.000000 0.000000 -1.000008 0.000000 0.000000 3743.dat
1 0 360.020800 -557.999800 -600.004600 -1.000008 0.000000 0.000000 0.000000 1.000000 0.000000 0.000000 0.000000 -1.000008 2780.dat
1 0 360.020800 -557.999800 -560.004300 -1.000008 0.000000 0.000000 0.000000 1.000000 0.000000 0.000000 0.000000 -1.000008 2780.dat
1 0 360.020800 -477.999800 -600.004600 -1.000008 0.000000 0.000000 0.000000 1.000000 0.000000 0.000000 0.000000 -1.000008 2780.dat
1 0 360.020800 -477.999800 -560.004300 -1.000008 0.000000 0.000000 0.000000 1.000000 0.000000 0.000000 0.000000 -1.000008 2780.dat
1 71 370.021700 -477.999800 -760.006600 0.000000 -1.000008 0.000000 -1.000000 0.000000 0.000000 0.000000 0.000000 -1.000008 32278.dat
1 0 360.021500 -477.999700 -640.005700 -1.000008 0.000000 0.000000 0.000000 1.000000 0.000000 0.000000 0.000000 -1.000008 2780.dat
1 0 360.021000 -557.999800 -680.005200 -1.000008 0.000000 0.000000 0.000000 1.000000 0.000000 0.000000 0.000000 -1.000008 2780.dat
1 0 360.021500 -477.999700 -680.005900 1.000008 0.000000 0.000000 0.000000 1.000000 0.000000 0.000000 0.000000 1.000008 2780.dat
1 0 360.021000 -557.999800 -640.004600 -1.000008 0.000000 0.000000 0.000000 1.000000 0.000000 0.000000 0.000000 -1.000008 2780.dat
1 0 360.021700 -557.999800 -800.007800 -1.000008 0.000000 0.000000 0.000000 1.000000 0.000000 0.000000 0.000000 -1.000008 2780.dat
1 0 360.021700 -477.999800 -800.007800 -1.000008 0.000000 0.000000 0.000000 1.000000 0.000000 0.000000 0.000000 -1.000008 2780.dat
1 0 360.021700 -477.999800 -880.008800 -1.000008 0.000000 0.000000 0.000000 1.000000 0.000000 0.000000 0.000000 -1.000008 2780.dat
1 0 359.996800 -278.000400 1100.006000 1.000002 0.000000 -0.000001 0.000001 0.000000 1.000002 0.000000 -1.000000 0.000000 2780.dat
1 0 359.996800 -238.000400 1100.006000 1.000002 0.000000 -0.000001 0.000001 0.000000 1.000002 0.000000 -1.000000 0.000000 2780.dat
1 0 359.996800 -198.000300 1100.006000 1.000001 0.000000 -0.000001 0.000001 0.000000 1.000001 0.000000 -1.000000 0.000000 2780.dat
1 0 359.996800 -158.000200 1100.006000 -1.000001 0.000000 0.000000 0.000000 0.000000 1.000001 0.000000 1.000000 0.000000 2780.dat
1 0 360.012400 -437.999900 1100.000000 0.999991 0.000001 -0.000001 0.000001 0.000000 1.000001 0.000000 -0.999991 0.000000 2780.dat
1 0 359.996800 -138.000200 1100.006000 1.000000 0.000000 0.000000 0.000000 0.000000 1.000000 0.000000 -0.999999 0.000000 2780.dat
1 0 359.996800 -98.000270 1100.006000 1.000000 0.000000 0.000000 0.000000 0.000000 1.000000 0.000000 -0.999999 0.000000 2780.dat
1 0 360.006500 -418.000200 1100.006000 1.000008 0.000000 -0.000001 0.000001 0.000000 1.000008 0.000000 -1.000000 0.000000 2780.dat
1 0 360.006600 -378.000300 1100.006000 1.000008 0.000000 -0.000001 0.000001 0.000000 1.000008 0.000000 -1.000000 0.000000 2780.dat
1 0 360.006600 -337.999500 1100.006000 1.000007 0.000000 -0.000001 0.000001 0.000000 1.000007 0.000000 -1.000000 0.000000 2780.dat
1 0 360.006600 -298.000200 1100.006000 1.000004 0.000001 -0.000001 0.000001 0.000000 1.000004 0.000000 -1.000000 0.000000 2780.dat
1 71 369.996600 -138.000200 1100.006000 0.000000 1.000000 0.000000 0.000000 0.000000 -1.000000 -1.000000 0.000000 0.000000 32524.dat
1 71 370.008200 -338.000000 1100.005000 0.000000 1.000000 0.000000 0.000000 0.000000 1.000000 1.000000 0.000000 0.000000 41239.dat
1 0 360.021600 -557.999800 -880.008100 -1.000000 0.000000 0.000000 0.000000 1.000000 0.000000 0.000000 0.000000 -1.000000 2780.dat
1 71 380.021600 -543.999800 -780.008100 0.000000 0.000000 1.000000 0.000000 1.000000 0.000000 -1.000000 0.000000 0.000000 3832.dat
1 71 370.020700 -477.999800 560.003800 0.000000 1.000000 0.000000 1.000000 0.000000 0.000000 0.000000 0.000000 -1.000000 32525.dat
1 0 360.020500 -477.999800 660.004600 -1.000000 0.000000 0.000000 0.000000 1.000000 0.000000 0.000000 0.000000 -1.000000 2780.dat
1 0 360.020500 -477.999800 700.004900 -1.000000 0.000000 0.000000 0.000000 1.000000 0.000000 0.000000 0.000000 -1.000000 2780.dat
1 0 360.020500 -477.999800 740.005200 -1.000000 0.000000 0.000000 0.000000 1.000000 0.000000 0.000000 0.000000 -1.000000 2780.dat
1 71 370.020500 -477.999800 800.005200 0.000000 1.000000 0.000000 1.000000 0.000000 0.000000 0.000000 0.000000 -1.000000 32525.dat
1 0 360.010500 -478.000300 1100.004000 1.000000 0.000001 -0.000001 0.000001 0.000000 1.000000 0.000001 -1.000000 0.000000 2780.dat
1 0 360.020500 -477.999800 840.005200 1.000000 0.000001 -0.000001 0.000001 0.000000 1.000000 0.000001 -1.000000 0.000000 2780.dat
1 0 360.020500 -477.999800 880.005200 1.000000 0.000001 -0.000001 0.000001 0.000000 1.000000 0.000001 -1.000000 0.000000 2780.dat
1 0 360.010500 -478.000300 920.003700 1.000000 0.000001 -0.000001 0.000001 0.000000 1.000000 0.000001 -1.000000 0.000000 2780.dat
1 0 360.010500 -478.000300 960.003700 1.000000 0.000001 -0.000001 0.000001 0.000000 1.000000 0.000001 -1.000000 0.000000 2780.dat
1 0 360.009400 -558.010400 1500.004000 -1.000029 0.000000 0.000000 0.000000 1.000029 0.000000 0.000000 0.000000 -1.000000 2780.dat
1 0 360.009500 -478.005200 1380.004000 -1.000029 0.000000 0.000000 0.000000 1.000029 0.000000 0.000000 0.000000 -1.000000 2780.dat
1 0 360.009400 -558.010400 1380.004000 -1.000029 0.000000 0.000000 0.000000 1.000029 0.000000 0.000000 0.000000 -1.000000 2780.dat
1 0 360.009300 -558.010400 1280.003000 -1.000029 0.000000 0.000000 0.000000 1.000029 0.000000 0.000000 0.000000 -1.000000 2780.dat
1 0 360.009300 -478.005200 1240.004000 -1.000029 0.000000 0.000000 0.000000 1.000029 0.000000 0.000000 0.000000 -1.000000 2780.dat
1 0 360.009300 -558.010400 1240.004000 -1.000029 0.000000 0.000000 0.000000 1.000029 0.000000 0.000000 0.000000 -1.000000 2780.dat
1 0 360.009200 -478.005200 1280.003000 -1.000029 0.000000 0.000000 0.000000 1.000029 0.000000 0.000000 0.000000 -1.000000 2780.dat
1 0 360.009700 -558.010400 1200.004000 -1.000029 0.000000 0.000000 0.000000 1.000029 0.000000 0.000000 0.000000 -1.000000 2780.dat
1 0 360.009600 -478.005200 1160.005000 -1.000029 0.000000 0.000000 0.000000 1.000029 0.000000 0.000000 0.000000 -1.000000 2780.dat
1 0 360.009700 -558.010400 1160.005000 -1.000029 0.000000 0.000000 0.000000 1.000029 0.000000 0.000000 0.000000 -1.000000 2780.dat
1 0 360.009600 -478.005200 1200.004000 -1.000029 0.000000 0.000000 0.000000 1.000029 0.000000 0.000000 0.000000 -1.000000 2780.dat
1 71 370.010300 -478.005300 1320.002000 0.000000 1.000021 0.000000 1.000029 0.000000 0.000000 0.000000 0.000000 -0.999992 32525.dat
1 0 360.009500 -478.005200 1420.002000 -1.000021 0.000000 0.000000 0.000000 1.000029 0.000000 0.000000 0.000000 -0.999992 2780.dat
1 0 360.009500 -478.005200 1460.002000 -1.000021 0.000000 0.000000 0.000000 1.000029 0.000000 0.000000 0.000000 -0.999992 2780.dat
1 0 360.009300 -478.005200 1500.002000 -1.000021 0.000000 0.000000 0.000000 1.000029 0.000000 0.000000 0.000000 -0.999992 2780.dat
1 71 370.010000 -478.005300 1560.002000 0.000000 1.000021 0.000000 1.000029 0.000000 0.000000 0.000000 0.000000 -0.999992 32525.dat
1 0 360.009400 -478.005300 1600.003000 1.000021 0.000001 -0.000001 0.000001 0.000000 1.000029 0.000001 -0.999992 0.000000 2780.dat
1 0 360.009400 -478.005300 1640.003000 1.000021 0.000001 -0.000001 0.000001 0.000000 1.000029 0.000001 -0.999992 0.000000 2780.dat
1 0 359.999500 -478.005700 1680.001000 1.000021 0.000001 -0.000001 0.000001 0.000000 1.000029 0.000001 -0.999992 0.000000 2780.dat
1 0 359.999500 -478.005700 1720.001000 1.000021 0.000001 -0.000001 0.000001 0.000000 1.000029 0.000001 -0.999992 0.000000 2780.dat
1 0 360.001000 -557.988000 2279.997000 -1.000015 0.000000 0.000000 0.000000 1.000015 0.000000 0.000000 0.000000 -1.000000 2780.dat
1 0 360.001000 -477.992200 2159.997000 -1.000015 0.000000 0.000000 0.000000 1.000015 0.000000 0.000000 0.000000 -1.000000 2780.dat
1 0 360.001000 -557.988000 2159.997000 -1.000015 0.000000 0.000000 0.000000 1.000015 0.000000 0.000000 0.000000 -1.000000 2780.dat
1 0 360.001100 -557.988000 2040.000000 -1.000015 0.000000 0.000000 0.000000 1.000015 0.000000 0.000000 0.000000 -1.000000 2780.dat
1 0 360.000900 -477.992200 2000.000000 -1.000015 0.000000 0.000000 0.000000 1.000015 0.000000 0.000000 0.000000 -1.000000 2780.dat
1 0 360.001000 -557.988000 2000.000000 -1.000015 0.000000 0.000000 0.000000 1.000015 0.000000 0.000000 0.000000 -1.000000 2780.dat
1 0 360.000900 -477.992200 2040.000000 -1.000015 0.000000 0.000000 0.000000 1.000015 0.000000 0.000000 0.000000 -1.000000 2780.dat
1 0 360.001300 -557.988000 1960.000000 -1.000015 0.000000 0.000000 0.000000 1.000015 0.000000 0.000000 0.000000 -1.000000 2780.dat
1 0 360.001000 -477.992200 1920.000000 -1.000015 0.000000 0.000000 0.000000 1.000015 0.000000 0.000000 0.000000 -1.000000 2780.dat
1 0 360.001300 -557.988000 1920.000000 -1.000015 0.000000 0.000000 0.000000 1.000015 0.000000 0.000000 0.000000 -1.000000 2780.dat
1 0 360.001000 -477.992200 1960.000000 -1.000015 0.000000 0.000000 0.000000 1.000015 0.000000 0.000000 0.000000 -1.000000 2780.dat
1 0 360.001000 -477.992200 2239.996000 -1.000007 0.000000 0.000000 0.000000 1.000015 0.000000 0.000000 0.000000 -0.999992 2780.dat
1 71 370.001000 -477.992200 2119.996000 0.000000 1.000000 0.000000 -1.000000 0.000000 0.000000 0.000000 0.000000 1.000000 32278.dat
1 0 360.009500 -558.011600 1720.003000 -1.000000 0.000000 0.000000 0.000000 1.000000 0.000000 0.000000 0.000000 -1.000000 2780.dat
1 0 360.009500 -558.011500 1680.003000 -1.000000 0.000000 0.000000 0.000000 1.000000 0.000000 0.000000 0.000000 -1.000000 2780.dat
1 0 360.009500 -558.011600 1640.003000 -1.000000 0.000000 0.000000 0.000000 1.000000 0.000000 0.000000 0.000000 -1.000000 2780.dat
1 0 360.009500 -558.011600 1600.004000 -1.000000 0.000000 0.000000 0.000000 1.000000 0.000000 0.000000 0.000000 -1.000000 2780.dat
1 0 360.009500 -558.011500 1460.002000 -1.000000 0.000000 0.000000 0.000000 1.000000 0.000000 0.000000 0.000000 -1.000000 2780.dat
1 0 360.010500 -558.000400 1100.004000 -1.000000 0.000000 0.000000 0.000000 1.000000 0.000000 0.000000 0.000000 -1.000000 2780.dat
1 0 360.020500 -557.999900 960.005200 -1.000000 0.000000 0.000000 0.000000 1.000000 0.000000 0.000000 0.000000 -1.000000 2780.dat
1 0 360.020500 -557.999900 920.005200 -1.000000 0.000000 0.000000 0.000000 1.000000 0.000000 0.000000 0.000000 -1.000000 2780.dat
1 0 360.020500 -557.999900 880.005200 -1.000000 0.000000 0.000000 0.000000 1.000000 0.000000 0.000000 0.000000 -1.000000 2780.dat
1 0 360.020500 -557.999900 840.005200 -1.000000 0.000000 0.000000 0.000000 1.000000 0.000000 0.000000 0.000000 -1.000000 2780.dat
1 71 370.021600 -567.999800 -780.008100 0.000000 0.000000 -1.000000 0.000000 1.000000 0.000000 1.000000 0.000000 0.000000 3703.dat
1 71 370.001300 -567.988000 2140.000000 0.000000 0.000000 -1.000000 0.000000 1.000000 0.000000 1.000000 0.000000 0.000000 3703.dat
1 71 370.009500 -568.011600 1540.004000 0.000000 0.000000 1.000000 0.000000 1.000000 0.000000 -1.000000 0.000000 0.000000 3895.dat
1 71 370.010000 -568.010400 1320.003000 0.000000 0.000000 1.000000 0.000000 1.000000 0.000000 -1.000000 0.000000 0.000000 2730.dat
1 71 370.020800 -567.999800 560.005700 0.000000 0.000000 1.000000 0.000000 1.000000 0.000000 -1.000000 0.000000 0.000000 2730.dat
1 71 370.020500 -567.999900 780.005200 0.000000 0.000000 1.000000 0.000000 1.000000 0.000000 -1.000000 0.000000 0.000000 3895.dat
1 0 360.020500 -557.999900 700.005200 -1.000000 0.000000 0.000000 0.000000 1.000000 0.000000 0.000000 0.000000 -1.000000 2780.dat
1 71 380.021200 -543.999800 -220.004600 0.000000 0.000000 1.000000 0.000000 1.000000 0.000000 -1.000000 0.000000 0.000000 91988.dat
1 71 380.020800 -543.999800 60.005280 0.000000 0.000000 1.000000 0.000000 1.000000 0.000000 -1.000000 0.000000 0.000000 91988.dat
1 71 380.020700 -543.999800 540.005700 0.000000 0.000000 1.000000 0.000000 1.000000 0.000000 -1.000000 0.000000 0.000000 91988.dat
1 71 380.022400 -543.999800 820.019400 0.000001 0.000000 1.000007 0.000000 1.000000 0.000000 -1.000007 0.000000 0.000001 91988.dat
1 71 380.007700 -544.011600 1299.994000 0.000000 0.000000 0.999993 0.000000 1.000000 0.000000 -0.999993 0.000000 0.000000 91988.dat
1 71 380.009400 -544.011600 1580.006000 0.000001 0.000000 1.000000 0.000000 1.000000 0.000000 -1.000000 0.000000 0.000001 91988.dat
1 71 380.001300 -543.988000 2140.000000 0.000000 0.000000 1.000000 0.000000 1.000000 0.000000 -1.000000 0.000000 0.000000 3832.dat
1 0 360.001300 -557.988100 2240.000000 -1.000000 0.000000 0.000000 0.000000 1.000000 0.000000 0.000000 0.000000 -1.000000 2780.dat
1 71 330.000400 -27.999940 1820.001000 0.000000 0.000000 1.000000 0.000000 1.000000 0.000000 -1.000000 0.000000 0.000000 3894.dat
1 1 350.000600 -17.999940 1779.995000 1.000000 0.000000 0.000000 0.000000 1.000000 0.000000 0.000000 0.000000 1.000000 6558.dat
1 1 350.000400 -17.999940 1860.002000 1.000000 0.000000 0.000000 0.000000 1.000000 0.000000 0.000000 0.000000 1.000000 6558.dat
1 71 350.011100 -498.000200 1820.000000 0.000000 -1.000000 0.000000 0.000000 0.000000 -1.000000 1.000000 0.000000 0.000000 64179.dat
1 71 350.000500 -78.000000 1820.000000 0.000000 -1.000000 0.000000 0.000000 0.000000 -1.000000 1.000000 0.000000 0.000000 64179.dat
1 0 350.000300 -148.000200 1840.001000 0.000000 -1.000000 0.000000 -1.000000 0.000000 0.000000 0.000000 0.000000 -1.000000 2780.dat
1 0 350.000600 -148.000000 1799.998000 0.000000 -1.000000 0.000000 -1.000000 0.000000 0.000000 0.000000 0.000000 -1.000000 2780.dat
1 71 350.000500 -218.000100 1820.000000 0.000000 -1.000000 0.000000 0.000000 0.000000 -1.000000 1.000000 0.000000 0.000000 64179.dat
1 0 350.001000 -288.000400 1840.002000 0.000001 -1.000002 0.000000 -1.000002 -0.000001 0.000000 0.000000 0.000000 -1.000000 2780.dat
1 0 350.001400 -288.000200 1799.998000 0.000001 -1.000002 0.000000 -1.000002 -0.000001 0.000000 0.000000 0.000000 -1.000000 2780.dat
1 71 370.000000 -28.000000 1820.000000 0.000000 0.000000 1.000000 0.000000 1.000000 0.000000 -1.000000 0.000000 0.000000 3894.dat
1 16 358.239400 -68.999880 1820.000000 0.000000 0.000000 1.000000 0.000000 1.000000 0.000000 -1.000000 0.000000 0.000000 39 copy 3
1 0 360.011600 -437.999800 1779.993000 1.000001 0.000001 -0.000001 0.000001 0.000000 1.000001 0.000000 -1.000000 0.000000 2780.dat
1 0 360.011900 -437.999800 1860.001000 1.000001 0.000001 -0.000001 0.000001 0.000000 1.000001 0.000000 -1.000000 0.000000 2780.dat
1 0 360.000800 -138.000000 1860.002000 1.000000 0.000000 0.000000 0.000000 0.000000 1.000000 0.000000 -1.000000 0.000000 2780.dat
1 0 360.000700 -138.000000 1779.995000 1.000000 0.000000 0.000000 0.000000 0.000000 1.000000 0.000000 -1.000000 0.000000 2780.dat
1 0 360.000700 -98.000000 1779.995000 -1.000000 0.000000 0.000000 0.000000 0.000000 1.000000 0.000000 1.000000 0.000000 2780.dat
1 0 360.000800 -98.000110 1860.002000 1.000000 0.000000 0.000000 0.000000 0.000000 1.000000 0.000000 -1.000000 0.000000 2780.dat
1 71 370.011300 -337.999800 1779.993000 0.000000 1.000000 0.000000 0.000000 0.000000 1.000000 1.000000 0.000000 0.000000 41239.dat
1 71 370.011800 -337.999800 1860.001000 0.000000 1.000000 0.000000 0.000000 0.000000 1.000000 1.000000 0.000000 0.000000 41239.dat
1 0 360.001300 -278.000100 1860.002000 1.000002 0.000000 -0.000001 0.000001 0.000000 1.000002 0.000000 -1.000000 0.000000 2780.dat
1 0 360.001200 -278.000100 1779.995000 1.000002 0.000000 -0.000001 0.000001 0.000000 1.000002 0.000000 -1.000000 0.000000 2780.dat
1 0 360.001200 -238.000100 1779.995000 -1.000002 0.000000 0.000000 0.000000 0.000000 1.000002 0.000000 1.000000 0.000000 2780.dat
1 0 360.001300 -238.000200 1860.002000 1.000002 0.000000 -0.000001 0.000001 0.000000 1.000002 0.000000 -1.000000 0.000000 2780.dat
1 0 360.001200 -198.000000 1779.995000 1.000001 0.000000 -0.000001 0.000001 0.000000 1.000001 0.000000 -1.000000 0.000000 2780.dat
1 0 360.001800 -157.999900 1779.995000 -1.000001 0.000000 0.000000 0.000000 0.000000 1.000001 0.000000 1.000000 0.000000 2780.dat
1 0 360.001300 -198.000000 1860.002000 1.000001 0.000000 -0.000001 0.000001 0.000000 1.000001 0.000000 -1.000000 0.000000 2780.dat
1 0 360.001300 -157.999900 1860.002000 -1.000001 0.000000 0.000000 0.000000 0.000000 1.000001 0.000000 1.000000 0.000000 2780.dat
1 0 360.011100 -478.000100 1780.000000 1.000000 0.000001 -0.000001 0.000001 0.000000 1.000000 0.000001 -1.000000 0.000000 2780.dat
1 0 360.011100 -478.000100 1860.000000 1.000000 0.000001 -0.000001 0.000001 0.000000 1.000000 0.000001 -1.000000 0.000000 2780.dat
1 71 370.011200 -478.000100 1820.000000 0.000000 1.000000 0.000000 -1.000000 0.000000 0.000000 0.000000 0.000000 1.000000 32278.dat
1 0 360.011100 -558.000100 1860.000000 -1.000000 0.000000 0.000000 0.000000 1.000000 0.000000 0.000000 0.000000 -1.000000 2780.dat
1 0 360.011100 -558.000100 1780.000000 -1.000000 0.000000 0.000000 0.000000 1.000000 0.000000 0.000000 0.000000 -1.000000 2780.dat
1 71 370.009500 -568.011600 1820.003000 0.000000 0.000000 -1.000000 0.000000 1.000000 0.000000 1.000000 0.000000 0.000000 3703.dat
1 71 380.009500 -544.011600 1880.003000 0.000000 0.000000 1.000000 0.000000 1.000000 0.000000 -1.000000 0.000000 0.000000 4282.dat
1 0 349.996900 -288.000600 1080.008000 0.000001 -1.000002 0.000000 -1.000002 -0.000001 0.000000 0.000000 0.000000 -1.000000 2780.dat
1 0 349.996900 -148.000300 1080.008000 0.000000 -1.000000 0.000000 -1.000000 0.000000 0.000000 0.000000 0.000000 -0.999999 2780.dat
1 0 350.004700 -428.000300 1080.008000 0.000001 -1.000008 0.000000 -1.000008 -0.000001 0.000000 0.000000 0.000000 -1.000000 2780.dat
1 71 329.996600 -28.000190 300.007800 0.000000 0.000000 1.000018 0.000000 1.000000 0.000000 -1.000018 0.000000 0.000000 3894.dat
1 1 349.997000 -18.000190 260.007100 1.000018 0.000000 0.000000 0.000000 1.000000 0.000000 0.000000 0.000000 1.000018 6558.dat
1 1 349.996900 -18.000190 340.008500 1.000018 0.000000 0.000000 0.000000 1.000000 0.000000 0.000000 0.000000 1.000018 6558.dat
1 71 349.996100 -218.000300 300.007800 0.000000 -1.000018 0.000000 0.000000 0.000000 -1.000000 1.000018 0.000000 0.000000 64179.dat
1 0 349.996900 -288.000600 320.008200 0.000001 -1.000020 0.000000 -1.000002 -0.000001 0.000000 0.000000 0.000000 -1.000018 2780.dat
1 0 349.996900 -288.000500 280.007400 0.000001 -1.000020 0.000000 -1.000002 -0.000001 0.000000 0.000000 0.000000 -1.000018 2780.dat
1 71 369.996200 -28.000290 300.007800 0.000000 0.000000 1.000018 0.000000 1.000000 0.000000 -1.000018 0.000000 0.000000 3894.dat
1 71 350.010800 -498.000400 300.002900 0.000000 -1.000008 0.000000 0.000000 0.000000 -1.000000 1.000008 0.000000 0.000000 64179.dat
1 71 349.996300 -78.000220 300.007800 0.000000 -1.000018 0.000000 0.000000 0.000000 -1.000000 1.000017 0.000000 0.000000 64179.dat
1 0 349.996300 -148.000300 320.008000 0.000000 -1.000018 0.000000 -1.000000 0.000000 0.000000 0.000000 0.000000 -1.000017 2780.dat
1 0 349.996300 -148.000200 280.007500 0.000000 -1.000018 0.000000 -1.000000 0.000000 0.000000 0.000000 0.000000 -1.000017 2780.dat
1 71 349.996300 -358.000500 300.008000 0.000000 -1.000018 0.000000 0.000000 0.000000 -1.000000 1.000018 0.000000 0.000000 64179.dat
1 0 350.006000 -428.000500 320.007900 0.000001 -1.000026 0.000000 -1.000008 -0.000001 0.000000 0.000000 0.000000 -1.000018 2780.dat
1 0 350.006000 -428.000300 280.007200 0.000001 -1.000026 0.000000 -1.000008 -0.000001 0.000000 0.000000 0.000000 -1.000018 2780.dat
1 0 359.996900 -278.000400 340.008500 1.000020 0.000000 -0.000001 0.000001 0.000000 1.000002 0.000000 -1.000018 0.000000 2780.dat
1 0 359.996900 -278.000400 260.006800 1.000020 0.000000 -0.000001 0.000001 0.000000 1.000002 0.000000 -1.000018 0.000000 2780.dat
1 0 359.996900 -238.000300 260.006800 -1.000020 0.000000 0.000000 0.000000 0.000000 1.000002 0.000000 1.000018 0.000000 2780.dat
1 0 359.996900 -238.000400 340.008500 1.000020 0.000000 -0.000001 0.000001 0.000000 1.000002 0.000000 -1.000018 0.000000 2780.dat
1 0 359.996800 -198.000200 260.006800 1.000019 0.000000 -0.000001 0.000001 0.000000 1.000001 0.000000 -1.000018 0.000000 2780.dat
1 0 359.997400 -158.000200 260.006800 -1.000019 0.000000 0.000000 0.000000 0.000000 1.000001 0.000000 1.000018 0.000000 2780.dat
1 0 359.996800 -198.000200 340.008500 1.000019 0.000000 -0.000001 0.000001 0.000000 1.000001 0.000000 -1.000018 0.000000 2780.dat
1 0 359.996800 -158.000200 340.008500 -1.000019 0.000000 0.000000 0.000000 0.000000 1.000001 0.000000 1.000018 0.000000 2780.dat
1 0 360.011100 -437.999900 260.001400 1.000009 0.000001 -0.000001 0.000001 0.000000 1.000001 0.000000 -1.000008 0.000000 2780.dat
1 0 360.011400 -438.000000 340.002800 1.000009 0.000001 -0.000001 0.000001 0.000000 1.000001 0.000000 -1.000008 0.000000 2780.dat
1 0 359.996500 -138.000200 340.008400 1.000018 0.000000 0.000000 0.000000 0.000000 1.000000 0.000000 -1.000017 0.000000 2780.dat
1 0 359.996500 -138.000200 260.007000 1.000018 0.000000 0.000000 0.000000 0.000000 1.000000 0.000000 -1.000017 0.000000 2780.dat
1 0 359.996500 -98.000220 260.007100 -1.000018 0.000000 0.000000 0.000000 0.000000 1.000000 0.000000 1.000017 0.000000 2780.dat
1 0 359.996500 -98.000350 340.008500 1.000018 0.000000 0.000000 0.000000 0.000000 1.000000 0.000000 -1.000017 0.000000 2780.dat
1 0 360.005900 -418.000300 340.008300 1.000026 0.000000 -0.000001 0.000001 0.000000 1.000008 0.000000 -1.000018 0.000000 2780.dat
1 0 360.005900 -418.000300 260.006700 1.000026 0.000000 -0.000001 0.000001 0.000000 1.000008 0.000000 -1.000018 0.000000 2780.dat
1 0 360.005900 -378.000000 260.006800 -1.000026 0.000000 0.000000 0.000000 0.000000 1.000008 0.000000 1.000018 0.000000 2780.dat
1 0 360.005900 -378.000200 340.008300 1.000026 0.000000 -0.000001 0.000001 0.000000 1.000008 0.000000 -1.000018 0.000000 2780.dat
1 0 360.005800 -337.999500 260.006800 1.000025 0.000000 -0.000001 0.000001 0.000000 1.000007 0.000000 -1.000018 0.000000 2780.dat
1 0 360.005800 -337.999500 340.008300 1.000025 0.000000 -0.000001 0.000001 0.000000 1.000007 0.000000 -1.000018 0.000000 2780.dat
1 71 369.996300 -138.000200 260.007100 0.000000 1.000018 0.000000 0.000000 0.000000 -1.000000 -1.000018 0.000000 0.000000 32524.dat
1 0 360.005300 -298.000200 260.007000 1.000022 0.000001 -0.000001 0.000001 0.000000 1.000004 0.000000 -1.000018 0.000000 2780.dat
1 0 360.005900 -298.000200 340.008500 1.000022 0.000001 -0.000001 0.000001 0.000000 1.000004 0.000000 -1.000018 0.000000 2780.dat
1 71 369.996500 -138.000200 340.008800 0.000000 1.000018 0.000000 0.000000 0.000000 -1.000000 -1.000018 0.000000 0.000000 32524.dat
1 71 370.008000 -337.999900 260.005100 0.000000 1.000018 0.000000 0.000000 0.000000 1.000000 1.000018 0.000000 0.000000 41239.dat
1 71 370.008200 -338.000000 340.007400 0.000000 1.000018 0.000000 0.000000 0.000000 1.000000 1.000018 0.000000 0.000000 41239.dat
1 71 390.020800 -551.999800 340.001600 0.000000 0.000000 1.000008 0.000000 1.000000 0.000000 -1.000008 0.000000 0.000000 3743.dat
1 71 390.020600 -551.999800 260.004600 0.000000 0.000000 1.000008 0.000000 1.000000 0.000000 -1.000008 0.000000 0.000000 3743.dat
1 71 370.020800 -567.999800 300.001800 0.000000 0.000000 -1.000008 0.000000 1.000000 0.000000 1.000008 0.000000 0.000000 3703.dat
1 71 370.020700 -477.999800 300.001700 0.000000 1.000008 0.000000 -1.000000 0.000000 0.000000 0.000000 0.000000 1.000008 32278.dat
1 0 360.010700 -478.000400 260.002600 -1.000000 0.000000 0.000000 0.000000 1.000000 0.000000 0.000000 0.000000 -1.000000 2780.dat
1 0 360.010700 -478.000400 340.003300 -1.000000 0.000000 0.000000 0.000000 1.000000 0.000000 0.000000 0.000000 -1.000000 2780.dat
1 71 380.020600 -543.999800 299.997700 0.000000 0.000000 1.000000 0.000000 1.000000 0.000000 -1.000000 0.000000 0.000000 3832.dat
1 0 359.996800 -278.000400 1020.005000 1.000002 0.000000 -0.000001 0.000001 0.000000 1.000002 0.000000 -1.000000 0.000000 2780.dat
1 0 359.996800 -238.000300 1020.005000 -1.000002 0.000000 0.000000 0.000000 0.000000 1.000002 0.000000 1.000000 0.000000 2780.dat
1 0 359.996800 -198.000200 1020.004000 1.000001 0.000000 -0.000001 0.000001 0.000000 1.000001 0.000000 -1.000000 0.000000 2780.dat
1 0 359.996800 -158.000200 1020.004000 -1.000001 0.000000 0.000000 0.000000 0.000000 1.000001 0.000000 1.000000 0.000000 2780.dat
1 0 360.012400 -437.999800 1019.999000 0.999991 0.000001 -0.000001 0.000001 0.000000 1.000001 0.000000 -0.999991 0.000000 2780.dat
1 0 359.996800 -138.000200 1020.004000 1.000000 0.000000 0.000000 0.000000 0.000000 1.000000 0.000000 -0.999999 0.000000 2780.dat
1 0 359.996800 -98.000140 1020.004000 -1.000000 0.000000 0.000000 0.000000 0.000000 1.000000 0.000000 0.999999 0.000000 2780.dat
1 0 360.006500 -418.000200 1020.004000 1.000008 0.000000 -0.000001 0.000001 0.000000 1.000008 0.000000 -1.000000 0.000000 2780.dat
1 0 360.006500 -378.000000 1020.004000 -1.000008 0.000000 0.000000 0.000000 0.000000 1.000008 0.000000 1.000000 0.000000 2780.dat
1 0 360.006500 -337.999500 1020.004000 1.000007 0.000000 -0.000001 0.000001 0.000000 1.000007 0.000000 -1.000000 0.000000 2780.dat
1 71 369.996600 -138.000200 1020.004000 0.000000 1.000000 0.000000 0.000000 0.000000 -1.000000 -1.000000 0.000000 0.000000 32524.dat
1 0 360.004500 -298.000100 1020.005000 1.000004 0.000001 -0.000001 0.000001 0.000000 1.000004 0.000000 -1.000000 0.000000 2780.dat
1 71 370.008400 -337.999900 1020.002000 0.000000 1.000000 0.000000 0.000000 0.000000 1.000000 1.000000 0.000000 0.000000 41239.dat
1 0 360.010500 -478.000300 1020.004000 1.000000 0.000001 -0.000001 0.000001 0.000000 1.000000 0.000001 -1.000000 0.000000 2780.dat
1 0 360.010500 -558.000300 1020.004000 -1.000000 0.000000 0.000000 0.000000 1.000000 0.000000 0.000000 0.000000 -1.000000 2780.dat
1 71 329.996600 -28.000190 1060.009000 0.000000 0.000000 1.000000 0.000000 1.000000 0.000000 -1.000000 0.000000 0.000000 3894.dat
1 71 349.996800 -218.000300 1060.009000 0.000000 -1.000000 0.000000 0.000000 0.000000 -1.000000 1.000000 0.000000 0.000000 64179.dat
1 0 349.996800 -288.000400 1040.006000 0.000001 -1.000002 0.000000 -1.000002 -0.000001 0.000000 0.000000 0.000000 -1.000000 2780.dat
1 71 369.996600 -28.000320 1060.009000 0.000000 0.000000 1.000000 0.000000 1.000000 0.000000 -1.000000 0.000000 0.000000 3894.dat
1 71 350.010400 -498.000300 1060.004000 0.000000 -0.999990 0.000000 0.000000 0.000000 -1.000000 0.999990 0.000000 0.000000 64179.dat
1 71 349.996800 -78.000160 1060.009000 0.000000 -1.000000 0.000000 0.000000 0.000000 -1.000000 0.999999 0.000000 0.000000 64179.dat
1 0 349.996800 -148.000200 1040.006000 0.000000 -1.000000 0.000000 -1.000000 0.000000 0.000000 0.000000 0.000000 -0.999999 2780.dat
1 71 349.996800 -358.000400 1060.009000 0.000000 -1.000000 0.000000 0.000000 0.000000 -1.000000 1.000000 0.000000 0.000000 64179.dat
1 0 350.004600 -428.000200 1040.006000 0.000001 -1.000008 0.000000 -1.000008 -0.000001 0.000000 0.000000 0.000000 -1.000000 2780.dat
1 71 370.010500 -478.000300 1060.004000 0.000000 1.000000 0.000000 -1.000000 0.000000 0.000000 0.000000 0.000000 1.000000 32278.dat
1 71 370.010300 -568.010400 1060.004000 0.000000 0.000000 -1.000000 0.000000 1.000000 0.000000 1.000000 0.000000 0.000000 3703.dat
1 71 380.010300 -544.010400 1060.004000 0.000000 0.000000 1.000000 0.000000 1.000000 0.000000 -1.000000 0.000000 0.000000 3832.dat
1 71 329.999800 -28.000000 -460.003400 0.000000 0.000000 1.000008 0.000000 1.000000 0.000000 -1.000008 0.000000 0.000000 3894.dat
1 1 350.000200 -18.000000 -500.003600 1.000008 0.000000 0.000000 0.000000 1.000000 0.000000 0.000000 0.000000 1.000008 6558.dat
1 1 350.000000 -18.000000 -420.003000 1.000008 0.000000 0.000000 0.000000 1.000000 0.000000 0.000000 0.000000 1.000008 6558.dat
1 71 350.010900 -498.000300 -460.003800 0.000000 -1.000008 0.000000 0.000000 0.000000 -1.000000 1.000008 0.000000 0.000000 64179.dat
1 71 350.000300 -78.000100 -460.003400 0.000000 -1.000008 0.000000 0.000000 0.000000 -1.000000 1.000008 0.000000 0.000000 64179.dat
1 0 350.000300 -148.000200 -440.003300 0.000000 -1.000008 0.000000 -1.000000 0.000000 0.000000 0.000000 0.000000 -1.000008 2780.dat
1 0 350.000300 -148.000100 -480.003500 0.000000 -1.000008 0.000000 -1.000000 0.000000 0.000000 0.000000 0.000000 -1.000008 2780.dat
1 71 350.000300 -218.000100 -460.003300 0.000000 -1.000008 0.000000 0.000000 0.000000 -1.000000 1.000008 0.000000 0.000000 64179.dat
1 0 350.001000 -288.000400 -440.003100 0.000001 -1.000010 0.000000 -1.000002 -0.000001 0.000000 0.000000 0.000000 -1.000008 2780.dat
1 0 350.001000 -288.000300 -480.003500 0.000001 -1.000010 0.000000 -1.000002 -0.000001 0.000000 0.000000 0.000000 -1.000008 2780.dat
1 71 370.000200 -28.000090 -460.003400 0.000000 0.000000 1.000008 0.000000 1.000000 0.000000 -1.000008 0.000000 0.000000 3894.dat
1 0 360.011200 -437.999800 -500.005300 1.000009 0.000001 -0.000001 0.000001 0.000000 1.000001 0.000000 -1.000008 0.000000 2780.dat
1 0 360.011500 -437.999800 -420.003900 1.000009 0.000001 -0.000001 0.000001 0.000000 1.000001 0.000000 -1.000008 0.000000 2780.dat
1 0 360.000300 -138.000100 -420.003100 1.000008 0.000000 0.000000 0.000000 0.000000 1.000000 0.000000 -1.000008 0.000000 2780.dat
1 0 360.000300 -138.000100 -500.003800 1.000008 0.000000 0.000000 0.000000 0.000000 1.000000 0.000000 -1.000008 0.000000 2780.dat
1 0 360.000300 -98.000100 -500.003700 -1.000008 0.000000 0.000000 0.000000 0.000000 1.000000 0.000000 1.000008 0.000000 2780.dat
1 0 360.000300 -98.000220 -420.003000 1.000008 0.000000 0.000000 0.000000 0.000000 1.000000 0.000000 -1.000008 0.000000 2780.dat
1 71 370.011100 -337.999800 -500.005500 0.000000 1.000008 0.000000 0.000000 0.000000 1.000000 1.000008 0.000000 0.000000 41239.dat
1 71 370.011400 -337.999900 -420.004000 0.000000 1.000008 0.000000 0.000000 0.000000 1.000000 1.000008 0.000000 0.000000 41239.dat
1 0 360.000900 -278.000200 -420.003000 1.000010 0.000000 -0.000001 0.000001 0.000000 1.000002 0.000000 -1.000008 0.000000 2780.dat
1 0 360.000900 -278.000200 -500.003900 1.000010 0.000000 -0.000001 0.000001 0.000000 1.000002 0.000000 -1.000008 0.000000 2780.dat
1 0 360.000900 -238.000100 -500.003900 -1.000010 0.000000 0.000000 0.000000 0.000000 1.000002 0.000000 1.000008 0.000000 2780.dat
1 0 360.000900 -238.000200 -420.003000 1.000010 0.000000 -0.000001 0.000001 0.000000 1.000002 0.000000 -1.000008 0.000000 2780.dat
1 0 360.000900 -198.000100 -500.003900 1.000009 0.000000 -0.000001 0.000001 0.000000 1.000001 0.000000 -1.000008 0.000000 2780.dat
1 0 360.001500 -158.000000 -500.003900 -1.000009 0.000000 0.000000 0.000000 0.000000 1.000001 0.000000 1.000008 0.000000 2780.dat
1 0 360.000900 -198.000100 -420.003000 1.000009 0.000000 -0.000001 0.000001 0.000000 1.000001 0.000000 -1.000008 0.000000 2780.dat
1 0 360.000900 -158.000000 -420.003000 -1.000009 0.000000 0.000000 0.000000 0.000000 1.000001 0.000000 1.000008 0.000000 2780.dat
1 71 390.021300 -551.999800 -380.004800 0.000000 0.000000 1.000008 0.000000 1.000000 0.000000 -1.000008 0.000000 0.000000 3743.dat
1 71 390.021100 -551.999800 -460.003600 0.000000 0.000000 1.000008 0.000000 1.000000 0.000000 -1.000008 0.000000 0.000000 3743.dat
1 71 370.019800 -477.999800 -460.004400 0.000000 1.000008 0.000000 -1.000000 0.000000 0.000000 0.000000 0.000000 1.000008 32278.dat
1 71 370.019800 -567.999800 -460.004400 0.000000 0.000000 -1.000008 0.000000 1.000000 0.000000 1.000008 0.000000 0.000000 3703.dat
1 0 360.010800 -478.000300 -500.004100 -1.000000 0.000000 0.000000 0.000000 1.000000 0.000000 0.000000 0.000000 -1.000000 2780.dat
1 0 360.010800 -478.000300 -420.003400 -1.000000 0.000000 0.000000 0.000000 1.000000 0.000000 0.000000 0.000000 -1.000000 2780.dat
1 71 380.019900 -543.999800 -520.005700 0.000000 0.000000 1.000000 0.000000 1.000000 0.000000 -1.000000 0.000000 0.000000 4282.dat
1 71 350.001100 -358.000200 -460.003400 0.000000 -1.000008 0.000000 0.000000 0.000000 -1.000000 1.000008 0.000000 0.000000 64179.dat
1 0 360.010600 -418.000100 -420.003400 1.000016 0.000000 -0.000001 0.000001 0.000000 1.000008 0.000000 -1.000008 0.000000 2780.dat
1 0 360.010600 -418.000100 -500.004200 1.000016 0.000000 -0.000001 0.000001 0.000000 1.000008 0.000000 -1.000008 0.000000 2780.dat
1 0 350.010800 -428.000200 -440.003600 0.000001 -1.000016 0.000000 -1.000008 -0.000001 0.000000 0.000000 0.000000 -1.000008 2780.dat
1 0 350.010800 -428.000100 -480.003900 0.000001 -1.000016 0.000000 -1.000008 -0.000001 0.000000 0.000000 0.000000 -1.000008 2780.dat
1 0 360.010600 -377.999800 -500.004200 -1.000016 0.000000 0.000000 0.000000 0.000000 1.000008 0.000000 1.000008 0.000000 2780.dat
1 0 360.010600 -378.000000 -420.003400 1.000016 0.000000 -0.000001 0.000001 0.000000 1.000008 0.000000 -1.000008 0.000000 2780.dat
1 0 360.010500 -337.999300 -500.004200 1.000015 0.000000 -0.000001 0.000001 0.000000 1.000007 0.000000 -1.000008 0.000000 2780.dat
1 0 360.010500 -337.999300 -420.003400 1.000015 0.000000 -0.000001 0.000001 0.000000 1.000007 0.000000 -1.000008 0.000000 2780.dat
1 71 370.000900 -138.000000 -500.003800 0.000000 1.000008 0.000000 0.000000 0.000000 -1.000000 -1.000008 0.000000 0.000000 32524.dat
1 0 360.010000 -297.999900 -500.003900 1.000012 0.000001 -0.000001 0.000001 0.000000 1.000004 0.000000 -1.000008 0.000000 2780.dat
1 0 360.010600 -297.999900 -420.003200 1.000012 0.000001 -0.000001 0.000001 0.000000 1.000004 0.000000 -1.000008 0.000000 2780.dat
1 71 370.001000 -138.000000 -420.003000 0.000000 1.000008 0.000000 0.000000 0.000000 -1.000000 -1.000008 0.000000 0.000000 32524.dat
1 71 390.022500 -551.999800 740.018800 0.000000 0.000000 1.000000 0.000000 1.000000 0.000000 -1.000000 0.000000 0.000000 3743.dat
1 71 390.022200 -551.999800 820.018100 0.000000 0.000000 1.000000 0.000000 1.000000 0.000000 -1.000000 0.000000 0.000000 3743.dat
1 71 390.022200 -551.999800 900.018000 0.000000 0.000000 1.000000 0.000000 1.000000 0.000000 -1.000000 0.000000 0.000000 3743.dat
1 71 390.022600 -551.999800 580.017800 0.000000 0.000000 1.000000 0.000000 1.000000 0.000000 -1.000000 0.000000 0.000000 3743.dat
1 71 390.022600 -551.999800 660.017800 0.000000 0.000000 1.000000 0.000000 1.000000 0.000000 -1.000000 0.000000 0.000000 3743.dat
1 71 390.022100 -551.999800 980.018200 0.000000 0.000000 1.000000 0.000000 1.000000 0.000000 -1.000000 0.000000 0.000000 3743.dat
1 71 390.009900 -552.010400 1220.002000 0.000000 0.000000 1.000000 0.000000 1.000000 0.000000 -1.000000 0.000000 0.000000 3743.dat
1 71 390.009900 -552.010400 1300.003000 0.000000 0.000000 1.000000 0.000000 1.000000 0.000000 -1.000000 0.000000 0.000000 3743.dat
1 71 390.009900 -552.010400 1380.003000 0.000000 0.000000 1.000000 0.000000 1.000000 0.000000 -1.000000 0.000000 0.000000 3743.dat
1 71 390.010300 -552.010400 1060.003000 0.000000 0.000000 1.000000 0.000000 1.000000 0.000000 -1.000000 0.000000 0.000000 3743.dat
1 71 390.010300 -552.010400 1140.003000 0.000000 0.000000 1.000000 0.000000 1.000000 0.000000 -1.000000 0.000000 0.000000 3743.dat
1 71 390.009900 -552.010400 1460.003000 0.000000 0.000000 1.000000 0.000000 1.000000 0.000000 -1.000000 0.000000 0.000000 3743.dat
1 71 390.009600 -552.011600 1699.996000 0.000000 0.000000 1.000000 0.000000 1.000000 0.000000 -1.000000 0.000000 0.000000 3743.dat
1 71 390.009500 -552.011600 1780.003000 0.000000 0.000000 1.000000 0.000000 1.000000 0.000000 -1.000000 0.000000 0.000000 3743.dat
1 71 390.009500 -552.011600 1860.004000 0.000000 0.000000 1.000000 0.000000 1.000000 0.000000 -1.000000 0.000000 0.000000 3743.dat
1 71 390.009900 -552.011600 1540.003000 0.000000 0.000000 1.000000 0.000000 1.000000 0.000000 -1.000000 0.000000 0.000000 3743.dat
1 71 390.009900 -552.011600 1620.003000 0.000000 0.000000 1.000000 0.000000 1.000000 0.000000 -1.000000 0.000000 0.000000 3743.dat
1 71 390.009500 -552.011600 1940.003000 0.000000 0.000000 1.000000 0.000000 1.000000 0.000000 -1.000000 0.000000 0.000000 3743.dat
1 71 390.009500 -552.011600 2020.001000 0.000000 0.000000 1.000000 0.000000 1.000000 0.000000 -1.000000 0.000000 0.000000 3743.dat
1 71 350.020500 -517.999800 680.004800 0.000000 1.000008 0.000000 -1.000000 0.000000 0.000000 0.000000 0.000000 1.000008 64178.dat
1 71 350.020400 -517.999800 460.003700 0.000000 1.000008 0.000000 -1.000000 0.000000 0.000000 0.000000 0.000000 1.000008 64178.dat
1 71 350.020500 -517.999800 140.000500 0.000000 1.000008 0.000000 -1.000000 0.000000 0.000000 0.000000 0.000000 1.000008 64178.dat
1 71 350.020600 -517.999800 -80.001970 0.000000 1.000008 0.000000 -1.000000 0.000000 0.000000 0.000000 0.000000 1.000008 64178.dat
1 71 350.020800 -517.999800 -300.002200 0.000000 1.000008 0.000000 -1.000000 0.000000 0.000000 0.000000 0.000000 1.000008 64178.dat
1 71 350.020700 -517.999800 -620.004800 0.000000 1.000008 0.000000 -1.000000 0.000000 0.000000 0.000000 0.000000 1.000008 64178.dat
1 71 350.021600 -517.999800 -860.008300 0.000000 1.000008 0.000000 -1.000000 0.000000 0.000000 0.000000 0.000000 1.000008 64178.dat
1 71 350.020500 -517.999900 900.005200 0.000000 1.000000 0.000000 -1.000000 0.000000 0.000000 0.000000 0.000000 1.000000 64178.dat
1 71 350.009800 -518.010300 1440.002000 0.000000 1.000029 0.000000 -1.000029 0.000000 0.000000 0.000000 0.000000 1.000000 64178.dat
1 71 350.009700 -518.010300 1220.004000 0.000000 1.000029 0.000000 -1.000029 0.000000 0.000000 0.000000 0.000000 1.000000 64178.dat
1 71 350.009700 -518.010400 1660.003000 0.000000 1.000021 0.000000 -1.000029 0.000000 0.000000 0.000000 0.000000 0.999992 64178.dat
1 71 350.000800 -517.992800 2219.996000 0.000000 1.000015 0.000000 -1.000015 0.000000 0.000000 0.000000 0.000000 1.000000 64178.dat
1 71 350.000500 -517.992800 1980.000000 0.000000 1.000015 0.000000 -1.000015 0.000000 0.000000 0.000000 0.000000 1.000000 64178.dat
0 STUDIOSTEPDESC External Model - Back
0 STEP
1 71 770.050200 -1144.210000 660.996900 0.999995 0.000000 0.000000 0.000000 0.000000 -1.000000 0.000000 0.999995 0.000000 59443.dat
1 71 730.050200 -1146.000000 661.003100 0.999995 0.000000 0.000000 0.000000 0.000000 1.000000 0.000000 -0.999995 0.000000 59443.dat
1 0 770.050300 -824.209900 661.000000 0.000000 -1.000000 0.000000 1.000000 0.000000 0.000000 0.000000 0.000000 1.000000 50450.dat
1 0 730.050300 -826.000200 661.000000 0.000000 -1.000000 0.000000 1.000000 0.000000 0.000000 0.000000 0.000000 1.000000 50450.dat
1 70 750.091900 -1256.000000 660.895000 0.000000 0.000000 1.000000 0.000000 1.000000 0.000000 -1.000000 0.000000 0.000000 24316.dat
1 71 750.091900 -1216.000000 680.895000 -1.000000 0.000000 0.000001 0.000001 0.000000 1.000000 0.000000 1.000000 0.000000 14720.dat
1 71 750.084800 -1216.000000 640.801000 -1.000000 0.000000 0.000000 0.000000 0.000000 1.000000 0.000000 1.000000 0.000000 14720.dat
1 71 750.084800 -1176.000000 660.801000 0.000000 -1.000000 0.000000 -1.000000 0.000000 0.000000 0.000000 0.000000 -1.000000 48989.dat
1 1 730.085000 -1166.000000 660.929000 0.000000 0.000000 0.999995 1.000000 0.000000 0.000000 0.000000 0.999995 0.000000 43093.dat
1 19 770.084800 -1164.210000 660.929000 0.000000 0.000000 -0.999995 1.000000 0.000000 0.000000 0.000000 -0.999995 0.000000 3749.dat
1 1 750.050200 -446.000200 661.000000 0.000000 0.495462 0.868647 1.000000 0.000000 -0.000001 0.000000 0.868646 -0.495461 43093.dat
1 72 760.297600 -405.273400 643.642000 0.000000 0.863406 -0.504539 -1.000000 0.000000 0.000000 0.000000 0.504538 0.863405 87083.dat
1 72 729.895400 -405.000300 660.984000 0.000001 0.061053 0.998150 -1.000000 0.000000 0.000001 0.000000 -0.998149 0.061053 87083.dat
1 72 759.960400 -405.000200 678.373000 0.000000 -0.890228 -0.455550 -1.000000 0.000001 0.000000 0.000000 0.455549 -0.890227 87083.dat
1 70 739.804600 -416.250200 678.357000 0.000000 0.495463 -0.868646 -1.000000 0.000000 0.000001 0.000000 0.868645 0.495462 24316.dat
1 70 740.142100 -415.000300 643.627000 0.000000 0.495463 -0.868648 -1.000000 0.000000 0.000001 0.000000 0.868645 0.495462 24316.dat
1 71 770.050200 -434.209800 661.000000 0.000000 -1.000000 -0.000006 -1.000000 0.000000 0.000000 0.000000 0.000006 -1.000000 32073.dat
1 72 759.960400 -418.510200 678.373000 -0.890227 0.455550 0.000000 0.000001 0.000000 1.000002 0.455550 0.890227 0.000000 10928.dat
1 72 740.142200 -416.640100 643.627000 -0.868647 0.495462 0.000000 0.000001 0.000000 1.000001 0.495464 0.868646 0.000000 10928.dat
1 72 760.297800 -416.340200 643.642900 -0.504538 0.863406 0.000000 0.000000 0.000000 1.000001 0.863407 0.504538 0.000000 10928.dat
1 72 739.804600 -417.540200 678.357000 -0.868647 0.495462 0.000000 0.000001 0.000000 1.000001 0.495464 0.868646 0.000000 10928.dat
1 72 729.895200 -416.360100 660.984000 -0.998150 -0.061053 0.000000 0.000000 0.000001 1.000002 -0.061053 0.998149 0.000000 10928.dat
1 72 770.196200 -418.040200 661.012900 -0.999717 0.024427 0.000000 0.000000 0.000000 1.000001 0.024430 0.999714 0.000000 10928.dat
1 72 750.050600 -439.850600 660.999000 -0.868647 0.495462 0.000000 0.000001 0.000000 1.000002 0.495464 0.868646 0.000000 4185.dat
1 72 750.050800 -431.143400 660.999000 -0.868647 0.495465 0.000000 0.000001 0.000000 1.000006 0.495464 0.868651 0.000000 4185.dat
1 14 760.298000 -385.670100 643.642900 -0.504539 0.863406 -0.000001 0.000000 0.000001 1.000000 0.863405 0.504538 -0.000001 32123a.dat
1 14 729.895100 -385.500100 660.984000 0.998150 0.061053 -0.000001 0.000001 0.000001 1.000002 0.061053 -0.998149 0.000000 32123a.dat
1 14 759.960300 -385.940100 678.373000 -0.455549 -0.890228 0.000000 0.000000 0.000001 1.000002 -0.890227 0.455549 0.000000 32123a.dat
1 72 750.051300 -403.820200 661.000000 -0.868647 0.495462 0.000000 0.000001 0.000000 1.000001 0.495464 0.868646 0.000000 4185.dat
1 72 750.051400 -395.113100 661.000000 -0.868646 0.495466 0.000000 0.000001 0.000000 1.000009 0.495462 0.868653 0.000000 4185.dat
0 STUDIOSTEPDESC External Model - Vertical Lifting + Gripper
0 STEP
0 NOFILE
0 FILE 39 Copy 3
0 39 Copy 3
0 Name: 39 Copy 3
0 Author: 
0 CustomBrick
0 FlexibleBrickControlPointUnitLength -1
0 FlexibleBrickLockedControlPoint 
0 NumOfBricks 13
1 71 -0.000240 -289.000200 -8.238040 -1.000000 0.000000 0.000000 0.000000 0.000000 -1.000000 0.000000 -1.000000 0.000000 64179.dat
1 0 -39.999820 -349.000100 1.771360 0.000000 1.000000 0.000000 0.000001 0.000000 1.000008 1.000008 0.000000 -0.000001 2780.dat
1 0 40.000300 -349.000100 1.771360 0.000000 1.000000 0.000000 0.000001 0.000000 1.000008 1.000008 0.000000 -0.000001 2780.dat
1 0 -19.999820 -359.000200 -8.228390 0.000000 0.000000 1.000000 -1.000008 -0.000001 0.000000 0.000001 -1.000008 0.000000 2780.dat
1 0 20.000180 -359.000100 -8.228390 0.000000 0.000000 1.000000 -1.000008 -0.000001 0.000000 0.000001 -1.000008 0.000000 2780.dat
1 0 40.000240 -308.999800 1.771360 0.000000 -1.000000 0.000000 0.000000 0.000000 1.000008 -1.000008 0.000000 0.000000 2780.dat
1 0 -39.999820 -309.000000 1.771360 0.000000 1.000000 0.000000 0.000001 0.000000 1.000008 1.000008 0.000000 -0.000001 2780.dat
1 0 40.000240 -268.999300 1.771240 0.000000 1.000000 0.000000 0.000001 0.000000 1.000007 1.000007 0.000000 -0.000001 2780.dat
1 0 -39.999820 -268.999300 1.771240 0.000000 1.000000 0.000000 0.000001 0.000000 1.000007 1.000007 0.000000 -0.000001 2780.dat
1 71 39.999880 -69.000000 11.761600 1.000000 0.000000 0.000000 0.000000 0.000000 -1.000000 0.000000 1.000000 0.000000 32524.dat
1 0 40.000000 -228.999900 1.770750 0.000000 1.000000 0.000000 0.000001 0.000000 1.000004 1.000004 0.000001 -0.000001 2780.dat
1 0 -40.000060 -228.999900 1.771360 0.000000 1.000000 0.000000 0.000001 0.000000 1.000004 1.000004 0.000001 -0.000001 2780.dat
1 71 -40.000300 -69.000000 11.761720 1.000000 0.000000 0.000000 0.000000 0.000000 -1.000000 0.000000 1.000000 0.000000 32524.dat
0 NOFILE
